<svg width="24" height="24" viewBox="0 0 24 24" fill="none" xmlns="http://www.w3.org/2000/svg">
<path d="M15.773 12.9729L14.65 11.8499C14.8205 10.9601 14.5865 10.2012 13.948 9.57296C13.3096 8.94476 12.5435 8.70374 11.65 8.84989L10.5269 7.72684C10.759 7.61914 10.9977 7.54157 11.2432 7.49414C11.4887 7.44671 11.741 7.42299 12 7.42299C13.1346 7.42299 14.0977 7.81882 14.8894 8.61049C15.681 9.40216 16.0769 10.3653 16.0769 11.4999C16.0769 11.7589 16.0547 12.0111 16.0105 12.2566C15.9663 12.5021 15.8871 12.7409 15.773 12.9729ZM18.9538 16.0845L17.85 15.0499C18.4833 14.5666 19.05 14.0291 19.55 13.4374C20.05 12.8457 20.4666 12.1999 20.8 11.4999C19.9666 9.81656 18.7625 8.47906 17.1875 7.48739C15.6125 6.49572 13.8833 5.99989 12 5.99989C11.5166 5.99989 11.0458 6.03322 10.5875 6.09989C10.1291 6.16656 9.66662 6.26656 9.19995 6.39989L8.0346 5.23454C8.67049 4.98326 9.31888 4.798 9.97978 4.67877C10.6407 4.55953 11.3141 4.49991 12 4.49991C14.1487 4.49991 16.1224 5.05825 17.9211 6.17491C19.7198 7.29158 21.1031 8.80247 22.0711 10.7076C22.1377 10.8345 22.1861 10.9624 22.2163 11.0912C22.2464 11.2201 22.2615 11.3563 22.2615 11.4999C22.2615 11.6435 22.249 11.7797 22.224 11.9085C22.199 12.0374 22.1531 12.1653 22.0865 12.2922C21.7326 13.0448 21.2884 13.7396 20.7538 14.3768C20.2192 15.014 19.6192 15.5832 18.9538 16.0845ZM12 18.4999C9.89484 18.4999 7.96536 17.9374 6.21153 16.8124C4.45768 15.6874 3.06344 14.2056 2.02883 12.3672C1.94549 12.2403 1.8846 12.1025 1.84615 11.9537C1.80769 11.805 1.78845 11.6537 1.78845 11.4999C1.78845 11.346 1.80512 11.1973 1.83845 11.0537C1.87179 10.9102 1.93012 10.7698 2.01345 10.6326C2.38525 9.95311 2.80641 9.30599 3.27693 8.69124C3.74744 8.07649 4.28847 7.52553 4.9 7.03837L2.6423 4.76526C2.50384 4.61655 2.43557 4.43995 2.4375 4.23546C2.43942 4.03098 2.51281 3.85631 2.65768 3.71144C2.80254 3.56657 2.97819 3.49414 3.1846 3.49414C3.391 3.49414 3.56664 3.56657 3.7115 3.71144L20.2884 20.2883C20.4269 20.4268 20.5002 20.5983 20.5086 20.8027C20.5169 21.0072 20.4435 21.187 20.2884 21.3422C20.1435 21.487 19.9679 21.5595 19.7615 21.5595C19.5551 21.5595 19.3794 21.487 19.2346 21.3422L15.7154 17.8537C15.1256 18.0819 14.5195 18.2467 13.8971 18.3479C13.2746 18.4492 12.6423 18.4999 12 18.4999ZM5.95383 8.09216C5.36793 8.54473 4.84132 9.0566 4.374 9.62777C3.90669 10.1989 3.51534 10.823 3.19995 11.4999C4.03329 13.1832 5.23745 14.5207 6.81245 15.5124C8.38745 16.5041 10.1166 16.9999 12 16.9999C12.4295 16.9999 12.8522 16.971 13.2683 16.9133C13.6843 16.8557 14.0974 16.7666 14.5077 16.646L13.2423 15.3499C13.0397 15.4383 12.8375 15.4982 12.6355 15.5297C12.4336 15.5611 12.2218 15.5768 12 15.5768C10.8654 15.5768 9.90222 15.181 9.11055 14.3893C8.31889 13.5976 7.92305 12.6345 7.92305 11.4999C7.92305 11.2781 7.94036 11.0662 7.97498 10.8643C8.00959 10.6624 8.06793 10.4601 8.14998 10.2576L5.95383 8.09216Z" fill="#9FA6B2"/>
</svg>
