<svg width="24" height="24" viewBox="0 0 24 24" fill="none" xmlns="http://www.w3.org/2000/svg">
<path d="M15.7731 12.973L14.6501 11.85C14.8206 10.9602 14.5866 10.2013 13.9481 9.57307C13.3097 8.94487 12.5437 8.70385 11.6501 8.85L10.527 7.72695C10.7591 7.61925 10.9978 7.54168 11.2433 7.49425C11.4889 7.44681 11.7411 7.4231 12.0001 7.4231C13.1347 7.4231 14.0978 7.81893 14.8895 8.6106C15.6811 9.40226 16.077 10.3654 16.077 11.5C16.077 11.759 16.0549 12.0112 16.0106 12.2567C15.9664 12.5022 15.8872 12.741 15.7731 12.973ZM18.9539 16.0846L17.8501 15.05C18.4834 14.5667 19.0501 14.0292 19.5501 13.4375C20.0501 12.8458 20.4667 12.2 20.8001 11.5C19.9667 9.81666 18.7626 8.47916 17.1876 7.4875C15.6126 6.49583 13.8834 6 12.0001 6C11.5167 6 11.0459 6.03333 10.5876 6.1C10.1292 6.16666 9.66674 6.26666 9.20007 6.4L8.03472 5.23465C8.67061 4.98336 9.319 4.79811 9.9799 4.67887C10.6408 4.55964 11.3142 4.50002 12.0001 4.50002C14.1488 4.50002 16.1225 5.05835 17.9212 6.17502C19.7199 7.29169 21.1032 8.80258 22.0712 10.7077C22.1379 10.8346 22.1863 10.9625 22.2164 11.0913C22.2465 11.2202 22.2616 11.3564 22.2616 11.5C22.2616 11.6436 22.2491 11.7798 22.2241 11.9086C22.1991 12.0375 22.1532 12.1654 22.0866 12.2923C21.7327 13.0449 21.2885 13.7397 20.7539 14.3769C20.2193 15.0141 19.6193 15.5833 18.9539 16.0846ZM12.0001 18.5C9.89496 18.5 7.96548 17.9375 6.21165 16.8125C4.4578 15.6875 3.06357 14.2057 2.02895 12.3673C1.94562 12.2404 1.88472 12.1026 1.84627 11.9538C1.80781 11.8051 1.78857 11.6538 1.78857 11.5C1.78857 11.3461 1.80524 11.1974 1.83857 11.0538C1.87191 10.9103 1.93024 10.7699 2.01357 10.6327C2.38537 9.95321 2.80653 9.3061 3.27705 8.69135C3.74757 8.0766 4.28859 7.52564 4.90012 7.03847L2.64242 4.76537C2.50396 4.61666 2.43569 4.44005 2.43762 4.23557C2.43954 4.03109 2.51293 3.85641 2.6578 3.71155C2.80267 3.56668 2.97831 3.49425 3.18472 3.49425C3.39112 3.49425 3.56676 3.56668 3.71162 3.71155L20.2885 20.2884C20.427 20.4269 20.5004 20.5984 20.5087 20.8028C20.517 21.0073 20.4436 21.1871 20.2885 21.3423C20.1437 21.4871 19.968 21.5596 19.7616 21.5596C19.5552 21.5596 19.3796 21.4871 19.2347 21.3423L15.7155 17.8538C15.1257 18.082 14.5196 18.2468 13.8972 18.348C13.2748 18.4493 12.6424 18.5 12.0001 18.5ZM5.95395 8.09227C5.36805 8.54484 4.84144 9.0567 4.37412 9.62787C3.90681 10.199 3.51546 10.8231 3.20007 11.5C4.03341 13.1833 5.23757 14.5208 6.81257 15.5125C8.38757 16.5042 10.1167 17 12.0001 17C12.4296 17 12.8523 16.9711 13.2684 16.9134C13.6844 16.8558 14.0975 16.7667 14.5078 16.6461L13.2424 15.35C13.0398 15.4384 12.8376 15.4984 12.6356 15.5298C12.4337 15.5612 12.2219 15.5769 12.0001 15.5769C10.8655 15.5769 9.90234 15.1811 9.11067 14.3894C8.31901 13.5977 7.92317 12.6346 7.92317 11.5C7.92317 11.2782 7.94048 11.0663 7.9751 10.8644C8.00972 10.6625 8.06805 10.4602 8.1501 10.2577L5.95395 8.09227Z" fill="#9FA6B2"/>
</svg>
