<svg width="396" height="132" viewBox="0 0 396 132" fill="none" xmlns="http://www.w3.org/2000/svg">
<rect y="12.9844" width="103.529" height="103.88" rx="28.9317" fill="#3692FF"/>
<path d="M49.9902 41.9056C51.2825 46.3715 47.8655 51.2926 43.9487 52.4337C40.0319 53.5748 34.6808 51.2081 33.3885 46.7422C32.0962 42.2762 34.8091 36.0883 38.7259 34.9473C43.9487 33.4257 48.6978 37.4396 49.9902 41.9056Z" fill="#222327"/>
<path d="M52.1441 41.9056C50.8518 46.3715 54.2688 51.2926 58.1856 52.4337C62.1024 53.5748 67.4535 51.2081 68.7458 46.7422C70.0381 42.2762 67.3252 36.0883 63.4084 34.9473C58.1856 33.4257 53.4364 37.4396 52.1441 41.9056Z" fill="#222327"/>
<path d="M76.3961 74.5317C76.3961 85.891 65.2579 90.1134 50.0647 90.1134C34.8715 90.1134 23.9854 85.891 23.9854 74.5317C23.9854 61.3185 34.8715 49.6011 50.0647 49.6011C65.2579 49.6011 76.3961 60.3213 76.3961 74.5317Z" fill="#F3D6DD"/>
<path d="M45.036 72.2892C45.036 76.0095 42.648 80.0907 39.311 80.0907C35.9741 80.0907 30.5835 77.0594 30.5835 71.502C30.5835 66.2815 36.4069 64.4248 42.4244 65.3781C46.1126 65.9624 45.036 68.5688 45.036 72.2892Z" fill="#222327"/>
<path d="M42.2455 71.9138C42.2455 72.4718 42.0777 72.9242 41.2385 72.9242C40.3993 72.9242 40.2314 72.4718 40.2314 71.9138C40.2314 71.3557 40.5671 70.9033 41.2385 70.9033C41.9098 70.9033 42.2455 71.3557 42.2455 71.9138Z" fill="white"/>
<path d="M55.1872 72.2892C55.1872 76.0095 57.5751 80.0907 60.9121 80.0907C64.2491 80.0907 69.6396 77.0594 69.6396 71.502C69.6396 66.2815 63.8162 64.4248 57.7987 65.3781C54.1105 65.9624 55.1872 68.5688 55.1872 72.2892Z" fill="#222327"/>
<path d="M57.9806 71.9142C57.9806 72.4723 58.1484 72.9247 58.9876 72.9247C59.8268 72.9247 59.9946 72.4723 59.9946 71.9142C59.9946 71.3562 59.659 70.9038 58.9876 70.9038C58.3163 70.9038 57.9806 71.3562 57.9806 71.9142Z" fill="white"/>
<path d="M46.2645 77.6693C46.0613 77.3728 45.6562 77.2971 45.3596 77.5003C45.063 77.7035 44.9873 78.1086 45.1905 78.4052L46.2645 77.6693ZM49.998 76.8687L50.6139 76.6577C50.5237 76.3945 50.2762 76.2177 49.998 76.2177C49.7198 76.2177 49.4724 76.3945 49.3822 76.6577L49.998 76.8687ZM54.8055 78.4052C55.0087 78.1086 54.9331 77.7035 54.6365 77.5003C54.3399 77.2971 53.9348 77.3728 53.7316 77.6693L54.8055 78.4052ZM45.1905 78.4052C45.3704 78.6677 45.697 79.0195 46.135 79.3101C46.5771 79.6034 47.1677 79.8569 47.8628 79.8569V78.555C47.4903 78.555 47.1467 78.4189 46.8547 78.2252C46.5588 78.0289 46.3516 77.7964 46.2645 77.6693L45.1905 78.4052ZM47.8628 79.8569C48.7183 79.8569 49.3545 79.2466 49.7505 78.7212C50.1686 78.1665 50.4641 77.5167 50.6139 77.0796L49.3822 76.6577C49.2651 76.9997 49.0267 77.5185 48.7109 77.9376C48.3728 78.3861 48.0749 78.555 47.8628 78.555V79.8569ZM49.3822 77.0796C49.532 77.5167 49.8274 78.1665 50.2456 78.7212C50.6416 79.2466 51.2778 79.8569 52.1333 79.8569V78.555C51.9211 78.555 51.6232 78.3861 51.2852 77.9376C50.9694 77.5185 50.731 76.9997 50.6139 76.6577L49.3822 77.0796ZM52.1333 79.8569C52.8284 79.8569 53.419 79.6034 53.861 79.3101C54.2991 79.0195 54.6257 78.6677 54.8055 78.4052L53.7316 77.6693C53.6445 77.7964 53.4373 78.0289 53.1413 78.2252C52.8494 78.4189 52.5058 78.555 52.1333 78.555V79.8569Z" fill="#222327"/>
<path d="M53.5516 76.2681C53.5516 76.8096 51.1134 77.4989 50.2928 77.7155C50.1175 77.7618 49.9366 77.7618 49.7612 77.7155C48.9406 77.4989 46.5024 76.8096 46.5024 76.2681C46.5024 75.6171 48.4512 74.9209 50.027 74.9209C51.6028 74.9209 53.5516 75.6171 53.5516 76.2681Z" fill="#222327"/>
<path d="M49.6061 58.9512C39.8117 58.9512 36.2122 55.5103 35.6299 53.4976L40.2886 48.4336L50.3825 46.6807L64.3587 53.4976C63.5176 55.1207 59.4113 58.9512 49.6061 58.9512Z" fill="#222327"/>
<path fill-rule="evenodd" clip-rule="evenodd" d="M50.9616 95.7631C71.2016 95.7631 86.0397 90.0587 86.0397 74.7124C86.0397 55.5141 71.2016 41.0312 50.9616 41.0312C30.7216 41.0312 16.2192 56.8614 16.2192 74.7124C16.2192 90.0587 30.7216 95.7631 50.9616 95.7631ZM50.1654 89.8699C65.0535 89.8699 75.968 85.6926 75.968 74.4544C75.968 60.3953 65.0535 49.7894 50.1654 49.7894C35.2773 49.7894 24.6097 61.3819 24.6097 74.4544C24.6097 85.6926 35.2773 89.8699 50.1654 89.8699Z" fill="white"/>
<path d="M183.487 54.3351H191.448V63.6233H183.487V82.4651H171.545V70.7885C163.053 72.5135 154.627 73.4423 142.353 73.4423H128.421V64.3531H133.728V45.5113H129.748V36.5548H166.37V45.5113H162.389V63.358C165.64 62.9599 168.692 62.4955 171.545 61.9647V35.8914H183.487V54.3351ZM134.989 98.2551V78.5508H147.196V89.0332H184.814V98.2551H134.989ZM145.67 64.3531C147.329 64.2868 148.921 64.2868 150.447 64.2204V45.5113H145.67V64.3531ZM257.792 58.9792V68.2674H249.831V98.2551H237.889V87.839C229.397 90.2938 220.971 91.687 208.698 91.687H196.756V37.8817H230.724V46.8382H208.698V82.5978C220.839 82.5978 229.463 81.4036 237.889 79.0152V35.8914H249.831V58.9792H257.792ZM324.137 58.9792V68.2674H316.176V98.2551H304.234V35.8914H316.176V58.9792H324.137ZM263.1 91.687V37.8817H297.798V91.687H263.1ZM275.042 82.5978H285.989V46.9709H275.042V82.5978ZM374.89 35.8914H386.501V71.85H374.89V35.8914ZM325.464 64.7512C333.226 63.1589 339.064 60.7042 342.315 57.586L329.444 58.3821V49.7573H345.102V45.5113H330.771V36.5548H356.712V48.4968H360.494V36.2231H371.772V71.85H360.494V57.785H354.987C351.471 64.6185 342.647 70.2578 329.245 73.6413L325.464 64.7512ZM332.695 88.7679C349.082 88.1708 353.859 84.7872 353.859 79.0152V73.9731H365.801V80.0767C365.801 81.669 365.602 83.1949 365.204 84.5882C372.9 85.1189 380.53 86.1804 386.501 87.5737L383.316 98.2551C376.483 95.8667 366.929 93.5447 359.233 92.2841C353.726 95.9994 344.903 97.7907 333.956 98.2551L332.695 88.7679Z" fill="#3692FF"/>
</svg>
