<svg width="150" height="41" viewBox="0 0 150 41" fill="none" xmlns="http://www.w3.org/2000/svg">
<rect y="0.0168457" width="40" height="40.1354" rx="11.1782" fill="#3692FF"/>
<path d="M19.3143 11.1911C19.8136 12.9166 18.4934 14.8179 16.9801 15.2588C15.4668 15.6996 13.3993 14.7852 12.9 13.0598C12.4007 11.3343 13.4489 8.94351 14.9622 8.50264C16.9801 7.91476 18.815 9.4656 19.3143 11.1911Z" fill="#222327"/>
<path d="M20.1464 11.1911C19.6471 12.9166 20.9673 14.8179 22.4806 15.2588C23.9939 15.6996 26.0614 14.7852 26.5607 13.0598C27.06 11.3343 26.0118 8.94351 24.4985 8.50264C22.4806 7.91476 20.6457 9.4656 20.1464 11.1911Z" fill="#222327"/>
<path d="M29.5171 23.7967C29.5171 28.1855 25.2137 29.8169 19.3436 29.8169C13.4735 29.8169 9.26746 28.1855 9.26746 23.7967C9.26746 18.6916 13.4735 14.1644 19.3436 14.1644C25.2137 14.1644 29.5171 18.3063 29.5171 23.7967Z" fill="#F3D6DD"/>
<path d="M17.4004 22.9301C17.4004 24.3675 16.4778 25.9444 15.1885 25.9444C13.8992 25.9444 11.8165 24.7732 11.8165 22.626C11.8165 20.609 14.0664 19.8916 16.3914 20.2599C17.8163 20.4857 17.4004 21.4927 17.4004 22.9301Z" fill="#222327"/>
<path d="M16.322 22.785C16.322 23.0007 16.2571 23.1754 15.9329 23.1754C15.6087 23.1754 15.5438 23.0007 15.5438 22.785C15.5438 22.5694 15.6735 22.3947 15.9329 22.3947C16.1923 22.3947 16.322 22.5694 16.322 22.785Z" fill="white"/>
<path d="M21.3222 22.9302C21.3222 24.3676 22.2448 25.9445 23.5341 25.9445C24.8233 25.9445 26.9061 24.7733 26.9061 22.6261C26.9061 20.6091 24.6561 19.8917 22.3312 20.2601C20.9062 20.4858 21.3222 21.4928 21.3222 22.9302Z" fill="#222327"/>
<path d="M22.4017 22.785C22.4017 23.0007 22.4666 23.1754 22.7908 23.1754C23.115 23.1754 23.1799 23.0007 23.1799 22.785C23.1799 22.5694 23.0502 22.3947 22.7908 22.3947C22.5314 22.3947 22.4017 22.5694 22.4017 22.785Z" fill="white"/>
<path d="M17.8752 25.0092C17.7967 24.8946 17.6402 24.8654 17.5256 24.9439C17.411 25.0224 17.3817 25.1789 17.4603 25.2935L17.8752 25.0092ZM19.3177 24.6998L19.5556 24.6183C19.5208 24.5166 19.4252 24.4483 19.3177 24.4483C19.2102 24.4483 19.1146 24.5166 19.0798 24.6183L19.3177 24.6998ZM21.1751 25.2935C21.2536 25.1789 21.2244 25.0224 21.1098 24.9439C20.9952 24.8654 20.8387 24.8946 20.7602 25.0092L21.1751 25.2935ZM17.4603 25.2935C17.5297 25.3949 17.6559 25.5308 17.8252 25.6431C17.996 25.7564 18.2241 25.8544 18.4927 25.8544V25.3514C18.3488 25.3514 18.216 25.2988 18.1032 25.224C17.9889 25.1481 17.9088 25.0583 17.8752 25.0092L17.4603 25.2935ZM18.4927 25.8544C18.8232 25.8544 19.0691 25.6186 19.2221 25.4156C19.3836 25.2013 19.4978 24.9502 19.5556 24.7813L19.0798 24.6183C19.0345 24.7505 18.9424 24.9509 18.8204 25.1128C18.6898 25.2861 18.5747 25.3514 18.4927 25.3514V25.8544ZM19.0798 24.7813C19.1376 24.9502 19.2518 25.2013 19.4133 25.4156C19.5663 25.6186 19.8122 25.8544 20.1427 25.8544V25.3514C20.0607 25.3514 19.9456 25.2861 19.815 25.1128C19.693 24.9509 19.6009 24.7505 19.5556 24.6183L19.0798 24.7813ZM20.1427 25.8544C20.4112 25.8544 20.6394 25.7564 20.8102 25.6431C20.9794 25.5308 21.1056 25.3949 21.1751 25.2935L20.7602 25.0092C20.7265 25.0583 20.6465 25.1481 20.5321 25.224C20.4193 25.2988 20.2866 25.3514 20.1427 25.3514V25.8544Z" fill="#222327"/>
<path d="M20.6908 24.4678C20.6908 24.677 19.7488 24.9433 19.4318 25.027C19.364 25.0449 19.2941 25.0449 19.2264 25.027C18.9093 24.9433 17.9673 24.677 17.9673 24.4678C17.9673 24.2162 18.7202 23.9473 19.3291 23.9473C19.9379 23.9473 20.6908 24.2162 20.6908 24.4678Z" fill="#222327"/>
<path d="M19.1663 17.7768C15.3821 17.7768 13.9914 16.4473 13.7664 15.6697L15.5664 13.7132L19.4663 13.0359L24.8662 15.6697C24.5412 16.2968 22.9547 17.7768 19.1663 17.7768Z" fill="#222327"/>
<path fill-rule="evenodd" clip-rule="evenodd" d="M19.69 31.9995C27.51 31.9995 33.2429 29.7956 33.2429 23.8663C33.2429 16.4488 27.51 10.8531 19.69 10.8531C11.87 10.8531 6.26678 16.9693 6.26678 23.8663C6.26678 29.7956 11.87 31.9995 19.69 31.9995ZM19.3825 29.7225C25.1347 29.7225 29.3517 28.1085 29.3517 23.7664C29.3517 18.3345 25.1347 14.2368 19.3825 14.2368C13.6303 14.2368 9.50872 18.7157 9.50872 23.7664C9.50872 28.1085 13.6303 29.7225 19.3825 29.7225Z" fill="white"/>
<path d="M70.8926 17.152H73.9685V20.7406H70.8926V28.0204H66.2786V23.509C62.9976 24.1754 59.7422 24.5343 55.0001 24.5343H49.6171V21.0226H51.6678V13.7428H50.1298V10.2823H64.2792V13.7428H62.7413V20.6381C63.9973 20.4843 65.1764 20.3048 66.2786 20.0998V10.026H70.8926V17.152ZM52.1548 34.121V26.508H56.8713V30.5581H71.4052V34.121H52.1548ZM56.2817 21.0226C56.9225 20.9969 57.5377 20.9969 58.1273 20.9713V13.7428H56.2817V21.0226ZM99.6016 18.9463V22.5349H96.5256V34.121H91.9117V30.0967C88.6306 31.0451 85.3752 31.5834 80.6331 31.5834H76.0192V10.795H89.1433V14.2554H80.6331V28.0716C85.324 28.0716 88.6563 27.6103 91.9117 26.6875V10.026H96.5256V18.9463H99.6016ZM125.235 18.9463V22.5349H122.159V34.121H117.545V10.026H122.159V18.9463H125.235ZM101.652 31.5834V10.795H115.058V31.5834H101.652ZM106.266 28.0716H110.496V14.3067H106.266V28.0716ZM144.844 10.026H149.33V23.9191H144.844V10.026ZM125.747 21.1764C128.746 20.5612 131.002 19.6127 132.258 18.408L127.285 18.7156V15.3833H133.335V13.7428H127.798V10.2823H137.821V14.8962H139.282V10.1541H143.639V23.9191H139.282V18.4849H137.154C135.795 21.1251 132.386 23.3039 127.208 24.6112L125.747 21.1764ZM128.541 30.4555C134.873 30.2248 136.718 28.9175 136.718 26.6875V24.7393H141.332V27.0976C141.332 27.7128 141.255 28.3023 141.102 28.8406C144.075 29.0457 147.023 29.4558 149.33 29.9941L148.099 34.121C145.459 33.1983 141.768 32.3011 138.795 31.8141C136.667 33.2495 133.258 33.9416 129.028 34.121L128.541 30.4555Z" fill="#3692FF"/>
</svg>
