<svg width="153" height="51" viewBox="0 0 153 51" fill="none" xmlns="http://www.w3.org/2000/svg">
<rect y="5.0166" width="40" height="40.1354" rx="11.1782" fill="#3692FF"/>
<path d="M19.3143 16.1912C19.8136 17.9167 18.4934 19.818 16.9801 20.2589C15.4668 20.6998 13.3994 19.7854 12.9001 18.0599C12.4008 16.3344 13.4489 13.9436 14.9622 13.5028C16.9801 12.9149 18.815 14.4657 19.3143 16.1912Z" fill="#222327"/>
<path d="M20.1466 16.1912C19.6473 17.9167 20.9675 19.818 22.4808 20.2589C23.9941 20.6998 26.0616 19.7854 26.5609 18.0599C27.0602 16.3344 26.012 13.9436 24.4987 13.5028C22.4808 12.9149 20.6459 14.4657 20.1466 16.1912Z" fill="#222327"/>
<path d="M29.5167 28.7964C29.5167 33.1852 25.2133 34.8166 19.3432 34.8166C13.4731 34.8166 9.26709 33.1852 9.26709 28.7964C9.26709 23.6912 13.4731 19.1641 19.3432 19.1641C25.2133 19.1641 29.5167 23.306 29.5167 28.7964Z" fill="#F3D6DD"/>
<path d="M17.4003 27.9299C17.4003 29.3673 16.4777 30.9441 15.1884 30.9441C13.8991 30.9441 11.8164 29.7729 11.8164 27.6258C11.8164 25.6087 14.0664 24.8914 16.3913 25.2597C17.8163 25.4855 17.4003 26.4925 17.4003 27.9299Z" fill="#222327"/>
<path d="M16.3221 27.7849C16.3221 28.0005 16.2573 28.1753 15.933 28.1753C15.6088 28.1753 15.5439 28.0005 15.5439 27.7849C15.5439 27.5693 15.6736 27.3945 15.933 27.3945C16.1924 27.3945 16.3221 27.5693 16.3221 27.7849Z" fill="white"/>
<path d="M21.3223 27.9299C21.3223 29.3673 22.2449 30.9441 23.5342 30.9441C24.8235 30.9441 26.9062 29.7729 26.9062 27.6258C26.9062 25.6087 24.6563 24.8914 22.3313 25.2597C20.9064 25.4855 21.3223 26.4925 21.3223 27.9299Z" fill="#222327"/>
<path d="M22.4015 27.7849C22.4015 28.0005 22.4664 28.1753 22.7906 28.1753C23.1148 28.1753 23.1797 28.0005 23.1797 27.7849C23.1797 27.5693 23.05 27.3945 22.7906 27.3945C22.5312 27.3945 22.4015 27.5693 22.4015 27.7849Z" fill="white"/>
<path d="M17.875 30.0096C17.7964 29.895 17.6399 29.8657 17.5253 29.9442C17.4107 30.0227 17.3815 30.1793 17.46 30.2939L17.875 30.0096ZM19.3174 29.7002L19.5554 29.6187C19.5205 29.517 19.4249 29.4487 19.3174 29.4487C19.21 29.4487 19.1144 29.517 19.0795 29.6187L19.3174 29.7002ZM21.1749 30.2939C21.2534 30.1793 21.2242 30.0227 21.1096 29.9442C20.995 29.8657 20.8385 29.895 20.7599 30.0096L21.1749 30.2939ZM17.46 30.2939C17.5295 30.3953 17.6557 30.5312 17.8249 30.6435C17.9957 30.7568 18.2239 30.8547 18.4925 30.8547V30.3517C18.3485 30.3517 18.2158 30.2992 18.103 30.2243C17.9886 30.1485 17.9086 30.0586 17.875 30.0096L17.46 30.2939ZM18.4925 30.8547C18.823 30.8547 19.0688 30.619 19.2218 30.416C19.3834 30.2016 19.4975 29.9506 19.5554 29.7817L19.0795 29.6187C19.0342 29.7508 18.9422 29.9513 18.8201 30.1132C18.6895 30.2865 18.5744 30.3517 18.4925 30.3517V30.8547ZM19.0795 29.7817C19.1374 29.9506 19.2515 30.2016 19.4131 30.416C19.5661 30.619 19.8119 30.8547 20.1424 30.8547V30.3517C20.0605 30.3517 19.9454 30.2865 19.8148 30.1132C19.6927 29.9513 19.6006 29.7508 19.5554 29.6187L19.0795 29.7817ZM20.1424 30.8547C20.411 30.8547 20.6392 30.7568 20.81 30.6435C20.9792 30.5312 21.1054 30.3953 21.1749 30.2939L20.7599 30.0096C20.7263 30.0586 20.6463 30.1485 20.5319 30.2243C20.4191 30.2992 20.2863 30.3517 20.1424 30.3517V30.8547Z" fill="#222327"/>
<path d="M20.6903 29.4678C20.6903 29.677 19.7483 29.9433 19.4313 30.027C19.3635 30.0449 19.2936 30.0449 19.2259 30.027C18.9088 29.9433 17.9668 29.677 17.9668 29.4678C17.9668 29.2162 18.7197 28.9473 19.3286 28.9473C19.9374 28.9473 20.6903 29.2162 20.6903 29.4678Z" fill="#222327"/>
<path d="M19.166 22.7761C15.3818 22.7761 13.9911 21.4466 13.7661 20.669L15.5661 18.7124L19.466 18.0352L24.8659 20.669C24.5409 21.2961 22.9544 22.7761 19.166 22.7761Z" fill="#222327"/>
<path fill-rule="evenodd" clip-rule="evenodd" d="M19.6898 36.9989C27.5098 36.9989 33.2427 34.795 33.2427 28.8657C33.2427 21.4482 27.5098 15.8525 19.6898 15.8525C11.8698 15.8525 6.2666 21.9687 6.2666 28.8657C6.2666 34.795 11.8698 36.9989 19.6898 36.9989ZM19.3823 34.7218C25.1345 34.7218 29.3515 33.1079 29.3515 28.7658C29.3515 23.3339 25.1345 19.2362 19.3823 19.2362C13.6301 19.2362 9.50854 23.7151 9.50854 28.7658C9.50854 33.1079 13.6301 34.7218 19.3823 34.7218Z" fill="white"/>
<path d="M70.8926 22.1522H73.9685V25.7408H70.8926V33.0206H66.2786V28.5092C62.9976 29.1757 59.7422 29.5345 55.0001 29.5345H49.6171V26.0228H51.6678V18.743H50.1298V15.2825H64.2792V18.743H62.7413V25.6383C63.9973 25.4845 65.1764 25.3051 66.2786 25.1V15.0262H70.8926V22.1522ZM52.1548 39.1213V31.5083H56.8713V35.5583H71.4052V39.1213H52.1548ZM56.2817 26.0228C56.9225 25.9972 57.5377 25.9972 58.1273 25.9715V18.743H56.2817V26.0228ZM99.6016 23.9465V27.5351H96.5256V39.1213H91.9117V35.0969C88.6306 36.0453 85.3752 36.5836 80.6331 36.5836H76.0192V15.7952H89.1433V19.2557H80.6331V33.0719C85.324 33.0719 88.6563 32.6105 91.9117 31.6877V15.0262H96.5256V23.9465H99.6016ZM125.235 23.9465V27.5351H122.159V39.1213H117.545V15.0262H122.159V23.9465H125.235ZM101.652 36.5836V15.7952H115.058V36.5836H101.652ZM106.266 33.0719H110.496V19.3069H106.266V33.0719ZM144.844 15.0262H149.33V28.9193H144.844V15.0262ZM125.747 26.1766C128.746 25.5614 131.002 24.613 132.258 23.4082L127.285 23.7158V20.3835H133.335V18.743H127.798V15.2825H137.821V19.8965H139.282V15.1544H143.639V28.9193H139.282V23.4851H137.154C135.795 26.1253 132.386 28.3041 127.208 29.6114L125.747 26.1766ZM128.541 35.4558C134.873 35.2251 136.718 33.9178 136.718 31.6877V29.7396H141.332V32.0978C141.332 32.713 141.255 33.3026 141.102 33.8409C144.075 34.0459 147.023 34.4561 149.33 34.9944L148.099 39.1213C145.459 38.1985 141.768 37.3013 138.795 36.8143C136.667 38.2498 133.258 38.9419 129.028 39.1213L128.541 35.4558Z" fill="#3692FF"/>
</svg>
