<svg width="24" height="24" viewBox="0 0 24 24" fill="none" xmlns="http://www.w3.org/2000/svg">
<g clip-path="url(#clip0_2020_1396)">
<path d="M12.0021 15.5769C13.1352 15.5769 14.0976 15.1803 14.8892 14.3872C15.6809 13.594 16.0767 12.6308 16.0767 11.4977C16.0767 10.3646 15.6802 9.40227 14.887 8.6106C14.0938 7.81893 13.1307 7.4231 11.9976 7.4231C10.8645 7.4231 9.9021 7.81968 9.11044 8.61285C8.31877 9.40603 7.92294 10.3692 7.92294 11.5023C7.92294 12.6354 8.31952 13.5977 9.11269 14.3894C9.90587 15.1811 10.869 15.5769 12.0021 15.5769ZM11.9998 14.2C11.2498 14.2 10.6123 13.9375 10.0873 13.4125C9.56234 12.8875 9.29984 12.25 9.29984 11.5C9.29984 10.75 9.56234 10.1125 10.0873 9.5875C10.6123 9.0625 11.2498 8.8 11.9998 8.8C12.7498 8.8 13.3873 9.0625 13.9123 9.5875C14.4373 10.1125 14.6998 10.75 14.6998 11.5C14.6998 12.25 14.4373 12.8875 13.9123 13.4125C13.3873 13.9375 12.7498 14.2 11.9998 14.2ZM11.9998 18.5C9.89472 18.5 7.96941 17.9384 6.22391 16.8154C4.47839 15.6923 3.08513 14.2147 2.04411 12.3827C1.96078 12.2391 1.89988 12.0944 1.86141 11.9486C1.82294 11.8027 1.80371 11.653 1.80371 11.4995C1.80371 11.346 1.82294 11.1965 1.86141 11.051C1.89988 10.9055 1.96078 10.7609 2.04411 10.6173C3.08513 8.78528 4.47839 7.30772 6.22391 6.18465C7.96941 5.06157 9.89472 4.50002 11.9998 4.50002C14.105 4.50002 16.0303 5.06157 17.7758 6.18465C19.5213 7.30772 20.9145 8.78528 21.9556 10.6173C22.0389 10.7609 22.0998 10.9056 22.1383 11.0515C22.1767 11.1973 22.196 11.347 22.196 11.5005C22.196 11.654 22.1767 11.8035 22.1383 11.949C22.0998 12.0945 22.0389 12.2391 21.9556 12.3827C20.9145 14.2147 19.5213 15.6923 17.7758 16.8154C16.0303 17.9384 14.105 18.5 11.9998 18.5ZM11.9998 17C13.8832 17 15.6123 16.5042 17.1873 15.5125C18.7623 14.5208 19.9665 13.1833 20.7998 11.5C19.9665 9.81667 18.7623 8.47917 17.1873 7.4875C15.6123 6.49583 13.8832 6 11.9998 6C10.1165 6 8.38734 6.49583 6.81234 7.4875C5.23734 8.47917 4.03317 9.81667 3.19984 11.5C4.03317 13.1833 5.23734 14.5208 6.81234 15.5125C8.38734 16.5042 10.1165 17 11.9998 17Z" fill="#4B5563"/>
<path d="M15.7731 12.9731L14.6501 11.85C14.8206 10.9603 14.5866 10.2013 13.9481 9.57308C13.3097 8.94488 12.5437 8.70385 11.6501 8.85L10.527 7.72695C10.7591 7.61925 10.9978 7.54168 11.2433 7.49425C11.4889 7.44682 11.7411 7.4231 12.0001 7.4231C13.1347 7.4231 14.0978 7.81893 14.8895 8.6106C15.6811 9.40227 16.077 10.3654 16.077 11.5C16.077 11.759 16.0549 12.0112 16.0106 12.2567C15.9664 12.5022 15.8872 12.741 15.7731 12.9731ZM18.9539 16.0846L17.8501 15.05C18.4834 14.5667 19.0501 14.0292 19.5501 13.4375C20.0501 12.8458 20.4667 12.2 20.8001 11.5C19.9667 9.81667 18.7626 8.47917 17.1876 7.4875C15.6126 6.49583 13.8834 6 12.0001 6C11.5167 6 11.0459 6.03333 10.5876 6.1C10.1292 6.16667 9.66674 6.26667 9.20007 6.4L8.03472 5.23465C8.67061 4.98337 9.319 4.79811 9.9799 4.67888C10.6408 4.55964 11.3142 4.50003 12.0001 4.50003C14.1488 4.50003 16.1225 5.05836 17.9212 6.17503C19.7199 7.29169 21.1032 8.80258 22.0712 10.7077C22.1379 10.8346 22.1863 10.9625 22.2164 11.0914C22.2465 11.2202 22.2616 11.3564 22.2616 11.5C22.2616 11.6436 22.2491 11.7798 22.2241 11.9087C22.1991 12.0375 22.1532 12.1654 22.0866 12.2923C21.7327 13.0449 21.2885 13.7397 20.7539 14.3769C20.2193 15.0141 19.6193 15.5833 18.9539 16.0846ZM12.0001 18.5C9.89496 18.5 7.96548 17.9375 6.21165 16.8125C4.4578 15.6875 3.06357 14.2058 2.02895 12.3673C1.94562 12.2404 1.88472 12.1026 1.84627 11.9539C1.80781 11.8051 1.78857 11.6539 1.78857 11.5C1.78857 11.3462 1.80524 11.1974 1.83857 11.0539C1.87191 10.9103 1.93024 10.7699 2.01357 10.6327C2.38537 9.95322 2.80653 9.3061 3.27705 8.69135C3.74757 8.0766 4.28859 7.52564 4.90012 7.03848L2.64242 4.76538C2.50396 4.61666 2.43569 4.44006 2.43762 4.23558C2.43954 4.03109 2.51293 3.85642 2.6578 3.71155C2.80267 3.56668 2.97831 3.49425 3.18472 3.49425C3.39112 3.49425 3.56676 3.56668 3.71162 3.71155L20.2885 20.2885C20.427 20.4269 20.5004 20.5984 20.5087 20.8029C20.517 21.0073 20.4436 21.1871 20.2885 21.3423C20.1437 21.4871 19.968 21.5596 19.7616 21.5596C19.5552 21.5596 19.3796 21.4871 19.2347 21.3423L15.7155 17.8538C15.1257 18.082 14.5196 18.2468 13.8972 18.3481C13.2748 18.4493 12.6424 18.5 12.0001 18.5ZM5.95395 8.09228C5.36805 8.54484 4.84144 9.05671 4.37412 9.62788C3.90681 10.199 3.51546 10.8231 3.20007 11.5C4.03341 13.1833 5.23757 14.5208 6.81257 15.5125C8.38757 16.5042 10.1167 17 12.0001 17C12.4296 17 12.8523 16.9712 13.2684 16.9135C13.6844 16.8558 14.0975 16.7667 14.5078 16.6462L13.2424 15.35C13.0398 15.4384 12.8376 15.4984 12.6356 15.5298C12.4337 15.5612 12.2219 15.5769 12.0001 15.5769C10.8655 15.5769 9.90234 15.1811 9.11067 14.3894C8.31901 13.5977 7.92317 12.6346 7.92317 11.5C7.92317 11.2782 7.94048 11.0663 7.9751 10.8644C8.00972 10.6625 8.06805 10.4602 8.1501 10.2577L5.95395 8.09228Z" fill="#4B5563"/>
</g>
<defs>
<clipPath id="clip0_2020_1396">
<rect width="24" height="24" fill="white"/>
</clipPath>
</defs>
</svg>
