<svg width="996" height="417" viewBox="0 0 996 417" fill="none" xmlns="http://www.w3.org/2000/svg">
    <rect x="109.519" y="113.069" width="124" height="228" rx="8" transform="rotate(-14.5652 109.519 113.069)" fill="#FFE7D1"/>
    <path d="M249.706 191.33C248.595 187.053 251.16 182.686 255.437 181.575L309.637 167.492C313.913 166.381 318.281 168.947 319.392 173.223L348.815 286.463L279.129 304.57L249.706 191.33Z" fill="#FFE7D1"/>
    <path d="M62.756 223.374C61.6449 219.097 64.2108 214.73 68.4871 213.619L131.398 197.273C135.674 196.162 140.042 198.728 141.153 203.004L174.6 331.729L96.203 352.099L62.756 223.374Z" fill="#FFE7D1"/>
    <rect x="135.842" y="126.893" width="20" height="23" rx="4" transform="rotate(-14.5652 135.842 126.893)" fill="#F5C498"/>
    <rect x="164.878" y="119.349" width="20" height="23" rx="4" transform="rotate(-14.5652 164.878 119.349)" fill="#F5C498"/>
    <rect x="193.914" y="111.805" width="20" height="23" rx="4" transform="rotate(-14.5652 193.914 111.805)" fill="#F5C498"/>
    <rect x="144.644" y="160.769" width="20" height="23" rx="4" transform="rotate(-14.5652 144.644 160.769)" fill="#F5C498"/>
    <rect x="173.68" y="153.224" width="20" height="23" rx="4" transform="rotate(-14.5652 173.68 153.224)" fill="#F5C498"/>
    <rect x="79.2799" y="225.473" width="20" height="23" rx="4" transform="rotate(-14.5652 79.2799 225.473)" fill="#F5C498"/>
    <rect x="108.316" y="217.929" width="20" height="23" rx="4" transform="rotate(-14.5652 108.316 217.929)" fill="#F5C498"/>
    <rect x="262.113" y="195.339" width="20" height="23" rx="4" transform="rotate(-14.5652 262.113 195.339)" fill="#F5C498"/>
    <rect x="291.148" y="187.794" width="20" height="23" rx="4" transform="rotate(-14.5652 291.148 187.794)" fill="#F5C498"/>
    <rect x="202.715" y="145.68" width="20" height="23" rx="4" transform="rotate(-14.5652 202.715 145.68)" fill="#F5C498"/>
    <ellipse cx="499" cy="435" rx="499" ry="176" fill="#D7A37E"/>
    <ellipse cx="499" cy="435" rx="499" ry="176" fill="url(#paint0_linear_2858_779)"/>
    <path d="M422.467 180.691C426.094 200.897 449.884 203.358 461.973 202.711L489.822 242.217C489.39 246.534 474.74 265.143 420.857 245.455C359.331 222.974 368.775 168.664 385.552 161.262C407.572 151.547 417.934 155.433 422.467 180.691Z" fill="#222327"/>
    <path d="M624.976 140.977C624.976 192.006 575.471 210.974 507.942 210.974C440.414 210.974 392.028 192.006 392.028 140.977C392.028 81.6206 440.414 28.9834 507.942 28.9834C575.471 28.9834 624.976 77.1408 624.976 140.977Z" fill="white"/>
    <path d="M446.43 270.31C446.43 248.563 454.312 215.751 461.326 202.063H559.119C565.926 214.208 572.553 244.862 572.058 270.31C571.44 302.12 538.64 304.433 508.316 305.59C477.992 306.746 446.43 297.493 446.43 270.31Z" fill="white"/>
    <path d="M458.486 311.917C452.259 300.504 446.43 294.027 446.43 266.179L487.794 278.146C494.319 278.04 507.721 280.4 509.128 290.692C510.886 303.557 504.991 319.48 502.167 321.381C499.908 322.901 492.115 322.565 488.501 322.208L474.626 319.588C469.541 321.914 464.109 322.222 458.486 311.917Z" fill="white"/>
    <path d="M559.916 311.917C566.143 300.504 571.971 294.027 571.971 266.179L530.607 278.146C524.082 278.04 510.68 280.4 509.273 290.692C507.515 303.557 513.41 319.48 516.234 321.381C518.494 322.901 526.286 322.565 529.901 322.208L543.775 319.588C548.86 321.914 554.293 322.222 559.916 311.917Z" fill="white"/>
    <path d="M461.658 207.244L457.772 206.596L454.534 215.016L455.181 219.549L461.658 207.244Z" fill="#222327"/>
    <path d="M503.422 320.472C503.422 326.269 498.32 329 482.439 329C466.558 329 456.792 326.925 456.792 321.128C456.792 315.331 457.829 308.923 479.46 308.923C495.341 308.923 503.422 314.675 503.422 320.472Z" fill="white"/>
    <path d="M516.375 320.472C516.375 326.269 521.477 329 537.358 329C553.239 329 563.005 326.925 563.005 321.128C563.005 315.331 561.969 308.923 540.338 308.923C524.457 308.923 516.375 314.675 516.375 320.472Z" fill="white"/>
    <rect x="538.964" y="210.677" width="46.6299" height="59.4172" rx="23.315" transform="rotate(-21.5019 538.964 210.677)" fill="#222327"/>
    <path d="M504.693 31.4017C509.004 46.2516 497.604 62.6148 484.536 66.409C471.468 70.2033 453.615 62.3338 449.303 47.484C444.992 32.6341 454.043 12.0586 467.111 8.26437C484.536 3.20498 500.381 16.5518 504.693 31.4017Z" fill="#222327"/>
    <path d="M511.876 31.4018C507.564 46.2517 518.965 62.6149 532.033 66.4091C545.101 70.2034 562.954 62.334 567.265 47.4841C571.577 32.6342 562.526 12.0587 549.458 8.2645C532.033 3.2051 516.188 16.552 511.876 31.4018Z" fill="#222327"/>
    <path d="M591.378 140.116C591.378 177.485 554.963 191.375 505.29 191.375C455.618 191.375 420.027 177.485 420.027 140.116C420.027 96.6486 455.618 58.1019 505.29 58.1019C554.963 58.1019 591.378 93.368 591.378 140.116Z" fill="#F3D6DD"/>
    <path d="M488.173 132.431C488.173 144.801 480.206 158.372 469.072 158.372C457.939 158.372 439.954 148.293 439.954 129.813C439.954 112.454 459.383 106.281 479.46 109.451C491.765 111.394 488.173 120.06 488.173 132.431Z" fill="#222327"/>
    <path d="M478.858 131.181C478.858 133.036 478.298 134.541 475.498 134.541C472.698 134.541 472.138 133.036 472.138 131.181C472.138 129.325 473.258 127.821 475.498 127.821C477.738 127.821 478.858 129.325 478.858 131.181Z" fill="white"/>
    <path d="M522.044 132.431C522.044 144.801 530.011 158.372 541.144 158.372C552.278 158.372 570.263 148.293 570.263 129.813C570.263 112.454 550.834 106.281 530.757 109.451C518.452 111.394 522.044 120.06 522.044 132.431Z" fill="#222327"/>
    <path d="M531.359 131.181C531.359 133.036 531.919 134.541 534.719 134.541C537.519 134.541 538.078 133.036 538.078 131.181C538.078 129.325 536.959 127.821 534.719 127.821C532.479 127.821 531.359 129.325 531.359 131.181Z" fill="white"/>
    <path d="M492.07 150.446C491.462 149.562 490.253 149.338 489.369 149.946C488.484 150.554 488.26 151.764 488.868 152.648L492.07 150.446ZM504.717 147.661L506.555 147.03C506.285 146.245 505.547 145.718 504.717 145.718C503.888 145.718 503.15 146.245 502.88 147.03L504.717 147.661ZM520.566 152.648C521.174 151.764 520.95 150.554 520.066 149.946C519.182 149.338 517.972 149.562 517.364 150.446L520.566 152.648ZM488.868 152.648C489.452 153.498 490.522 154.647 491.958 155.596C493.406 156.554 495.333 157.376 497.593 157.376V153.49C496.292 153.49 495.101 153.016 494.101 152.355C493.089 151.686 492.377 150.892 492.07 150.446L488.868 152.648ZM497.593 157.376C500.331 157.376 502.395 155.426 503.707 153.69C505.084 151.869 506.061 149.73 506.555 148.293L502.88 147.03C502.484 148.183 501.679 149.93 500.608 151.347C499.471 152.85 498.417 153.49 497.593 153.49V157.376ZM502.88 148.293C503.374 149.73 504.35 151.869 505.728 153.69C507.04 155.426 509.103 157.376 511.841 157.376V153.49C511.018 153.49 509.964 152.85 508.827 151.347C507.756 149.93 506.951 148.183 506.555 147.03L502.88 148.293ZM511.841 157.376C514.102 157.376 516.028 156.554 517.477 155.596C518.913 154.647 519.982 153.498 520.566 152.648L517.364 150.446C517.058 150.892 516.346 151.686 515.334 152.355C514.333 153.016 513.143 153.49 511.841 153.49V157.376Z" fill="#222327"/>
    <path d="M516.579 145.665C516.579 147.486 508.255 149.81 505.614 150.502C505.091 150.638 504.547 150.638 504.025 150.502C501.384 149.81 493.06 147.486 493.06 145.665C493.06 143.5 499.562 141.185 504.819 141.185C510.077 141.185 516.579 143.5 516.579 145.665Z" fill="#222327"/>
    <path d="M503.422 88.0786C470.744 88.0786 458.735 76.637 456.792 69.9448L472.336 53.1062L506.013 47.2775L552.643 69.9448C549.836 75.3418 536.136 88.0786 503.422 88.0786Z" fill="#222327"/>
    <path fill-rule="evenodd" clip-rule="evenodd" d="M507.942 211.134C575.471 211.134 624.976 192.166 624.976 141.138C624.976 77.3011 575.471 29.1437 507.942 29.1437C440.414 29.1437 392.029 81.7809 392.029 141.138C392.029 192.166 440.414 211.134 507.942 211.134ZM505.291 191.535C554.963 191.535 591.378 177.645 591.378 140.276C591.378 93.5281 554.963 58.262 505.291 58.262C455.618 58.262 420.027 96.8086 420.027 140.276C420.027 177.645 455.618 191.535 505.291 191.535Z" fill="white"/>
    <path fill-rule="evenodd" clip-rule="evenodd" d="M560.827 207.244C545.174 210.669 527.299 212.228 507.942 212.228C490.259 212.228 473.888 210.927 459.356 208.09C452.916 223.494 446.43 252.325 446.43 272.051C446.43 299.234 477.992 308.488 508.316 307.331C538.64 306.174 571.44 303.861 572.059 272.051C572.512 248.741 566.99 221.065 560.827 207.244Z" fill="white"/>
    <path fill-rule="evenodd" clip-rule="evenodd" d="M446.43 265.578C459.704 270.336 480.067 274.175 509.116 273.303C534.192 272.551 555.424 269.442 571.933 265.798C571.6 243.635 566.423 218.801 560.692 205.949C545.039 209.374 527.164 210.932 507.807 210.932C490.124 210.932 473.753 209.632 459.22 206.795C453.324 220.898 447.39 246.257 446.43 265.578Z" fill="#222327"/>
    <path d="M535.804 243.512C538.772 216.844 552.322 209.307 565.059 205.638C570.24 204.145 578.659 204.342 583.193 206.285C588.681 208.637 594.85 213.409 599.384 224.419C603.917 235.429 609.635 251.931 612.225 268.77L612.26 268.994C614.852 285.838 618.804 311.514 567.223 311.514C524.725 311.514 533.102 267.786 535.804 243.512Z" fill="#3786E2"/>
    <path d="M556.208 259.664C544.939 253.434 540.855 239.248 547.085 227.979L549.488 223.632C554.697 214.211 565.678 209.581 576.06 212.428L580.302 213.592C594.735 217.551 601.753 233.892 594.686 247.085L591.706 252.648C585.476 263.917 571.29 268.002 560.021 261.772L556.208 259.664Z" fill="#222327"/>
    <path d="M454.534 226.673C452.461 229.264 449.569 245.886 448.058 253.226C447.41 253.226 443.524 252.147 442.876 251.931C442.229 244.159 448.058 226.673 454.534 226.673Z" fill="#1A1A1C"/>
    <rect x="487.563" y="217.606" width="6.47638" height="19.4291" rx="3.23819" fill="white"/>
    <path fill-rule="evenodd" clip-rule="evenodd" d="M487.563 233.15V233.797C487.563 235.586 489.013 237.035 490.802 237.035C492.59 237.035 494.04 235.586 494.04 233.797V233.15H487.563Z" fill="#256FC5"/>
    <rect x="519.945" y="217.606" width="6.47638" height="19.4291" rx="3.23819" fill="white"/>
    <path fill-rule="evenodd" clip-rule="evenodd" d="M519.945 233.15V233.797C519.945 235.586 521.395 237.035 523.183 237.035C524.972 237.035 526.421 235.586 526.421 233.797V233.15H519.945Z" fill="#256FC5"/>
    <path d="M508.288 309.571C506.345 324.466 501.164 327.057 495.983 327.705L497.925 315.4C500.516 311.945 509.293 301.864 508.288 309.571Z" fill="white"/>
    <path d="M509.663 309.814C511.606 324.709 517.355 328.676 529.012 328.676L520.025 315.643C517.434 312.189 508.658 302.107 509.663 309.814Z" fill="white"/>
    <path fill-rule="evenodd" clip-rule="evenodd" d="M586.471 280.466C588.044 282.26 588.94 284.658 589.164 287.494C589.601 293.011 584.375 295.488 577.025 296.069C569.675 296.65 564.247 295.015 563.811 289.498C563.606 286.904 564.078 284.469 565.279 282.444C565.037 282.169 564.839 281.851 564.705 281.495C564.02 279.684 564.947 277.025 566.541 276.422C568.251 275.776 569.95 276.626 570.907 277.925C572.244 277.429 573.778 277.096 575.514 276.959C577.203 276.826 578.735 276.885 580.11 277.121C580.776 275.539 582.413 274.238 584.332 274.635C586.001 274.98 587.335 277.46 586.943 279.356C586.859 279.763 586.694 280.135 586.471 280.466Z" fill="#2D68AE"/>
    <path d="M574.594 286.981C574.72 288.582 573.869 290.416 572.485 290.526C571.101 290.635 568.762 289.508 568.573 287.117C568.395 284.871 570.747 283.881 573.275 284.094C574.825 284.224 574.467 285.381 574.594 286.981Z" fill="#3475C2"/>
    <path d="M571.986 286.948C572.011 287.261 572.126 287.508 572.599 287.47C573.072 287.433 573.146 287.171 573.122 286.858C573.097 286.544 572.888 286.305 572.509 286.335C572.131 286.365 571.962 286.634 571.986 286.948Z" fill="white"/>
    <path d="M578.121 286.703C578.247 288.303 579.377 289.981 580.761 289.871C582.145 289.762 584.277 288.281 584.088 285.89C583.911 283.644 581.432 283.036 578.969 283.644C577.459 284.016 577.994 285.102 578.121 286.703Z" fill="#3475C2"/>
    <path d="M580.69 286.26C580.715 286.573 580.641 286.835 580.168 286.872C579.695 286.909 579.58 286.663 579.555 286.349C579.53 286.036 579.7 285.767 580.078 285.737C580.456 285.707 580.666 285.946 580.69 286.26Z" fill="white"/>
    <rect x="705.732" y="225.396" width="29" height="53" rx="6" transform="rotate(10 705.732 225.396)" fill="#DC9759"/>
    <circle cx="723.804" cy="209.289" r="46" transform="rotate(10 723.804 209.289)" fill="#54B858"/>
    <circle cx="723.804" cy="209.289" r="46" transform="rotate(10 723.804 209.289)" fill="url(#paint1_linear_2858_779)"/>
    <rect x="824.258" y="254.683" width="29" height="53" rx="6" transform="rotate(20 824.258 254.683)" fill="#DC9759"/>
    <circle cx="844.851" cy="241.959" r="46" transform="rotate(20 844.851 241.959)" fill="#54B858"/>
    <circle cx="844.851" cy="241.959" r="46" transform="rotate(20 844.851 241.959)" fill="url(#paint2_linear_2858_779)"/>
    <defs>
        <linearGradient id="paint0_linear_2858_779" x1="499" y1="259" x2="499" y2="611" gradientUnits="userSpaceOnUse">
            <stop stop-color="#E18745"/>
            <stop offset="1" stop-color="#D7A37E" stop-opacity="0"/>
        </linearGradient>
        <linearGradient id="paint1_linear_2858_779" x1="723.804" y1="163.289" x2="723.804" y2="255.289" gradientUnits="userSpaceOnUse">
            <stop stop-color="#32A737"/>
            <stop offset="1" stop-color="#54B858" stop-opacity="0"/>
        </linearGradient>
        <linearGradient id="paint2_linear_2858_779" x1="844.851" y1="195.959" x2="844.851" y2="287.959" gradientUnits="userSpaceOnUse">
            <stop stop-color="#32A737"/>
            <stop offset="1" stop-color="#54B858" stop-opacity="0"/>
        </linearGradient>
    </defs>
</svg>