<svg width="588" height="445" viewBox="0 0 588 445" fill="none" xmlns="http://www.w3.org/2000/svg">
<g clip-path="url(#clip0_293_19039)">
<rect y="0.5" width="588" height="444" rx="12" fill="#F3F4F6"/>
<rect x="199" y="137.5" width="191" height="191" rx="39" fill="white"/>
<rect x="-68" y="137.5" width="191" height="191" rx="39" fill="white"/>
<path fill-rule="evenodd" clip-rule="evenodd" d="M256.245 159.41C254.921 167.767 244.25 174.28 231.282 174.28C217.847 174.28 206.877 167.289 206.212 158.5L160.398 161.243C157.366 161.425 155 163.937 155 166.975V199.196C155 202.719 158.144 205.411 161.626 204.869L172.791 203.129C176.496 202.551 179.75 205.622 179.39 209.354L170.91 297.145C170.591 300.446 173.127 303.33 176.442 303.435L270.67 306.444C273.911 306.547 276.595 303.948 276.595 300.705V212.973C276.595 209.328 279.948 206.605 283.516 207.354L296.079 209.991C299.647 210.74 303 208.017 303 204.372V173.154C303 170.402 301.047 168.036 298.344 167.516L256.245 159.41Z" fill="#4DC380"/>
<path d="M222.4 224.867C222.959 227.264 221.008 229.768 218.899 230.26C216.789 230.753 214.018 229.35 213.458 226.953C212.899 224.556 214.513 221.362 216.622 220.87C219.435 220.213 221.841 222.469 222.4 224.867Z" fill="#37B36B"/>
<path d="M233.163 224.958C232.352 227.282 234.025 229.98 236.07 230.694C238.115 231.408 241.02 230.309 241.832 227.985C242.643 225.661 241.379 222.313 239.334 221.599C236.607 220.647 233.975 222.634 233.163 224.958Z" fill="#37B36B"/>
<path d="M243.267 238.608C242.892 245.632 235.893 247.876 226.537 247.377C217.181 246.877 210.616 243.908 210.991 236.884C211.428 228.714 216.92 222.466 227.836 223.049C238.753 223.632 243.736 229.821 243.267 238.608Z" fill="#37B36B"/>
<path d="M224.997 235.521C224.888 237.559 223.508 239.727 221.746 239.633C219.984 239.539 217.227 237.726 217.389 234.683C217.542 231.823 220.671 230.971 223.82 231.663C225.75 232.087 225.106 233.484 224.997 235.521Z" fill="#269E58"/>
<path d="M221.718 235.042C221.696 235.441 221.8 235.771 222.402 235.803C223.004 235.835 223.142 235.518 223.163 235.119C223.184 234.72 222.961 234.383 222.479 234.358C221.997 234.332 221.739 234.643 221.718 235.042Z" fill="white"/>
<path d="M229.487 235.761C229.378 237.799 230.52 240.101 232.281 240.195C234.043 240.289 236.978 238.781 237.14 235.737C237.293 232.878 234.273 231.697 231.068 232.05C229.104 232.266 229.596 233.723 229.487 235.761Z" fill="#269E58"/>
<path d="M232.798 235.633C232.777 236.033 232.639 236.35 232.037 236.317C231.435 236.285 231.332 235.955 231.353 235.556C231.374 235.157 231.632 234.847 232.114 234.872C232.596 234.898 232.819 235.234 232.798 235.633Z" fill="white"/>
<path d="M391 138.449C390.721 129.713 383.199 122.775 373.726 122.775C370.662 122.775 365.925 124.831 363.975 128.171C363.697 128.942 362.582 128.942 362.303 128.171C360.075 125.088 355.617 123.032 352.274 123.032C343.08 123.032 335.279 129.97 335 138.449V138.963C335 143.331 336.95 147.442 340.294 150.525C340.572 150.782 353.945 161.831 360.075 166.713C361.746 167.998 364.254 167.998 365.925 166.713C372.055 161.831 385.149 151.039 385.706 150.782C385.706 150.782 385.706 150.782 385.706 150.525C389.05 147.699 391 143.588 391 138.963V138.449Z" fill="url(#paint0_linear_293_19039)"/>
<path d="M340.984 91.5004C339.135 87.2004 334.027 85.2214 329.305 87.0843C327.777 87.687 325.818 89.6431 325.5 91.6917C325.512 92.1307 324.957 92.3499 324.667 92.0204C322.952 90.9217 320.328 90.7737 318.661 91.4311C314.078 93.2392 311.547 98.2316 313.068 102.513L313.169 102.769C314.024 104.947 315.801 106.613 318.071 107.492C318.261 107.565 327.09 110.443 331.101 111.671C332.186 111.983 333.436 111.49 334.018 110.521C336.117 106.882 340.532 98.9271 340.76 98.6895C340.76 98.6895 340.76 98.6895 340.709 98.5614C341.822 96.495 341.99 94.0621 341.084 91.7566L340.984 91.5004Z" fill="url(#paint1_linear_293_19039)"/>
<path d="M387.813 93.41C389.729 89.1396 387.737 84.027 383.178 81.7935C381.703 81.0709 378.941 80.9435 377.218 82.0913C376.903 82.3967 376.367 82.1339 376.414 81.6972C376.065 79.6877 374.402 77.6473 372.793 76.859C368.368 74.6912 362.985 76.1909 360.86 80.2062L360.74 80.4535C359.714 82.5559 359.688 84.9944 360.574 87.2667C360.647 87.456 364.49 95.9268 366.295 99.7217C366.798 100.734 368.004 101.325 369.111 101.101C373.206 100.197 382.042 98.0902 382.37 98.0979C382.37 98.0979 382.37 98.0979 382.431 97.9742C384.703 97.4022 386.607 95.8833 387.692 93.6573L387.813 93.41Z" fill="url(#paint2_linear_293_19039)"/>
<rect x="466" y="137.5" width="191" height="191" rx="39" fill="white"/>
<path fill-rule="evenodd" clip-rule="evenodd" d="M256.245 159.41C254.921 167.767 244.25 174.28 231.282 174.28C217.847 174.28 206.877 167.289 206.212 158.5L160.398 161.243C157.366 161.425 155 163.937 155 166.975V199.196C155 202.719 158.144 205.411 161.626 204.869L172.791 203.129C176.496 202.551 179.75 205.622 179.39 209.354L170.91 297.145C170.591 300.446 173.127 303.33 176.442 303.435L270.67 306.444C273.911 306.547 276.595 303.948 276.595 300.705V212.973C276.595 209.328 279.948 206.605 283.516 207.354L296.079 209.991C299.647 210.74 303 208.017 303 204.372V173.154C303 170.402 301.047 168.036 298.344 167.516L256.245 159.41Z" fill="#4DC380"/>
<path d="M222.4 224.867C222.959 227.264 221.008 229.768 218.899 230.26C216.789 230.753 214.018 229.35 213.458 226.953C212.899 224.556 214.513 221.362 216.622 220.87C219.435 220.213 221.841 222.469 222.4 224.867Z" fill="#37B36B"/>
<path d="M233.163 224.958C232.352 227.282 234.025 229.98 236.07 230.694C238.115 231.408 241.02 230.309 241.832 227.985C242.643 225.661 241.379 222.313 239.334 221.599C236.607 220.647 233.975 222.634 233.163 224.958Z" fill="#37B36B"/>
<path d="M243.267 238.608C242.892 245.632 235.893 247.876 226.537 247.377C217.181 246.877 210.616 243.908 210.991 236.884C211.428 228.714 216.92 222.466 227.836 223.049C238.753 223.632 243.736 229.821 243.267 238.608Z" fill="#37B36B"/>
<path d="M224.997 235.521C224.888 237.559 223.508 239.727 221.746 239.633C219.984 239.539 217.227 237.726 217.389 234.683C217.542 231.823 220.671 230.971 223.82 231.663C225.75 232.087 225.106 233.484 224.997 235.521Z" fill="#269E58"/>
<path d="M221.718 235.042C221.696 235.441 221.8 235.771 222.402 235.803C223.004 235.835 223.142 235.518 223.163 235.119C223.184 234.72 222.961 234.383 222.479 234.358C221.997 234.332 221.739 234.643 221.718 235.042Z" fill="white"/>
<path d="M229.487 235.761C229.378 237.799 230.52 240.101 232.281 240.195C234.043 240.289 236.978 238.781 237.14 235.737C237.293 232.878 234.273 231.697 231.068 232.05C229.104 232.266 229.596 233.723 229.487 235.761Z" fill="#269E58"/>
<path d="M232.798 235.633C232.777 236.033 232.639 236.35 232.037 236.317C231.435 236.285 231.332 235.955 231.353 235.556C231.374 235.157 231.632 234.847 232.114 234.872C232.596 234.898 232.819 235.234 232.798 235.633Z" fill="white"/>
<path d="M391 138.449C390.721 129.713 383.199 122.775 373.726 122.775C370.662 122.775 365.925 124.831 363.975 128.171C363.697 128.942 362.582 128.942 362.303 128.171C360.075 125.088 355.617 123.032 352.274 123.032C343.08 123.032 335.279 129.97 335 138.449V138.963C335 143.331 336.95 147.442 340.294 150.525C340.572 150.782 353.945 161.831 360.075 166.713C361.746 167.998 364.254 167.998 365.925 166.713C372.055 161.831 385.149 151.039 385.706 150.782C385.706 150.782 385.706 150.782 385.706 150.525C389.05 147.699 391 143.588 391 138.963V138.449Z" fill="url(#paint3_linear_293_19039)"/>
<path d="M340.984 91.5004C339.135 87.2004 334.027 85.2214 329.305 87.0843C327.777 87.687 325.818 89.6431 325.5 91.6917C325.512 92.1307 324.957 92.3499 324.667 92.0204C322.952 90.9217 320.328 90.7737 318.661 91.4311C314.078 93.2392 311.547 98.2316 313.068 102.513L313.169 102.769C314.024 104.947 315.801 106.613 318.071 107.492C318.261 107.565 327.09 110.443 331.101 111.671C332.186 111.983 333.436 111.49 334.018 110.521C336.117 106.882 340.532 98.9271 340.76 98.6895C340.76 98.6895 340.76 98.6895 340.709 98.5614C341.822 96.495 341.99 94.0621 341.084 91.7566L340.984 91.5004Z" fill="url(#paint4_linear_293_19039)"/>
<path d="M387.813 93.41C389.729 89.1396 387.737 84.027 383.178 81.7935C381.703 81.0709 378.941 80.9435 377.218 82.0913C376.903 82.3967 376.367 82.1339 376.414 81.6972C376.065 79.6877 374.402 77.6473 372.793 76.859C368.368 74.6912 362.985 76.1909 360.86 80.2062L360.74 80.4535C359.714 82.5559 359.688 84.9944 360.574 87.2667C360.647 87.456 364.49 95.9268 366.295 99.7217C366.798 100.734 368.004 101.325 369.111 101.101C373.206 100.197 382.042 98.0902 382.37 98.0979C382.37 98.0979 382.37 98.0979 382.431 97.9742C384.703 97.4022 386.607 95.8833 387.692 93.6573L387.813 93.41Z" fill="url(#paint5_linear_293_19039)"/>
<path d="M159.664 346.902C163.976 361.752 152.575 378.115 139.508 381.909C126.44 385.703 108.586 377.834 104.275 362.984C99.9632 348.134 109.014 327.559 122.082 323.765C139.508 318.705 155.353 332.052 159.664 346.902Z" fill="#222327"/>
<path d="M166.847 346.902C162.536 361.752 173.936 378.115 187.004 381.909C200.072 385.704 217.925 377.834 222.237 362.984C226.548 348.134 217.497 327.559 204.429 323.765C187.004 318.705 171.159 332.052 166.847 346.902Z" fill="#222327"/>
<path d="M258 460.885C258 500.7 217.622 515.5 162.543 515.5C107.465 515.5 68 500.7 68 460.885C68 414.571 107.465 373.5 162.543 373.5C217.622 373.5 258 411.076 258 460.885Z" fill="white"/>
<path fill-rule="evenodd" clip-rule="evenodd" d="M162.914 526.634C230.442 526.634 279.948 507.666 279.948 456.638C279.948 392.801 230.442 344.644 162.914 344.644C95.3853 344.644 47 397.281 47 456.638C47 507.666 95.3853 526.634 162.914 526.634ZM160.262 507.035C209.935 507.035 246.35 493.145 246.35 455.776C246.35 409.028 209.935 373.762 160.262 373.762C110.59 373.762 74.9986 412.309 74.9986 455.776C74.9986 493.145 110.59 507.035 160.262 507.035Z" fill="white"/>
<path d="M407.664 346.902C411.976 361.752 400.575 378.115 387.508 381.909C374.44 385.703 356.586 377.834 352.275 362.984C347.963 348.134 357.014 327.559 370.082 323.765C387.508 318.705 403.353 332.052 407.664 346.902Z" fill="#222327"/>
<path d="M414.847 346.902C410.536 361.752 421.936 378.115 435.004 381.909C448.072 385.704 465.925 377.834 470.237 362.984C474.548 348.134 465.497 327.559 452.429 323.765C435.004 318.705 419.159 332.052 414.847 346.902Z" fill="#222327"/>
<path d="M506 460.885C506 500.7 465.622 515.5 410.543 515.5C355.465 515.5 316 500.7 316 460.885C316 414.571 355.465 373.5 410.543 373.5C465.622 373.5 506 411.076 506 460.885Z" fill="white"/>
<path fill-rule="evenodd" clip-rule="evenodd" d="M410.914 526.634C478.442 526.634 527.948 507.666 527.948 456.638C527.948 392.801 478.442 344.644 410.914 344.644C343.385 344.644 295 397.281 295 456.638C295 507.666 343.385 526.634 410.914 526.634ZM408.262 507.035C457.935 507.035 494.35 493.145 494.35 455.776C494.35 409.028 457.935 373.762 408.262 373.762C358.59 373.762 322.999 412.309 322.999 455.776C322.999 493.145 358.59 507.035 408.262 507.035Z" fill="white"/>
</g>
<defs>
<linearGradient id="paint0_linear_293_19039" x1="363" y1="122.775" x2="363" y2="167.677" gradientUnits="userSpaceOnUse">
<stop stop-color="#FF37BB"/>
<stop offset="1" stop-color="#FF68CC"/>
</linearGradient>
<linearGradient id="paint1_linear_293_19039" x1="323.958" y1="89.1937" x2="332.782" y2="111.563" gradientUnits="userSpaceOnUse">
<stop stop-color="#FF37BB"/>
<stop offset="1" stop-color="#FF68CC"/>
</linearGradient>
<linearGradient id="paint2_linear_293_19039" x1="378.016" y1="79.2644" x2="367.438" y2="100.856" gradientUnits="userSpaceOnUse">
<stop stop-color="#FF37BB"/>
<stop offset="1" stop-color="#FF68CC"/>
</linearGradient>
<linearGradient id="paint3_linear_293_19039" x1="363" y1="122.775" x2="363" y2="167.677" gradientUnits="userSpaceOnUse">
<stop stop-color="#FF37BB"/>
<stop offset="1" stop-color="#FF68CC"/>
</linearGradient>
<linearGradient id="paint4_linear_293_19039" x1="323.958" y1="89.1937" x2="332.782" y2="111.563" gradientUnits="userSpaceOnUse">
<stop stop-color="#FF37BB"/>
<stop offset="1" stop-color="#FF68CC"/>
</linearGradient>
<linearGradient id="paint5_linear_293_19039" x1="378.016" y1="79.2644" x2="367.438" y2="100.856" gradientUnits="userSpaceOnUse">
<stop stop-color="#FF37BB"/>
<stop offset="1" stop-color="#FF68CC"/>
</linearGradient>
<clipPath id="clip0_293_19039">
<rect width="588" height="444" fill="white" transform="translate(0 0.5)"/>
</clipPath>
</defs>
</svg>
