<svg width="588" height="444" viewBox="0 0 588 444" fill="none" xmlns="http://www.w3.org/2000/svg">
<g clip-path="url(#clip0_293_19055)">
<rect width="588" height="444" rx="12" fill="#F3F4F6"/>
<g opacity="0.5" clip-path="url(#clip1_293_19055)">
<path d="M-43.6321 328.56C-43.6321 323.79 -39.7652 319.923 -34.9951 319.923H82.4849C87.255 319.923 91.1219 323.79 91.1219 328.56V398.571C91.1219 401.751 88.544 404.329 85.3639 404.329H-37.8741C-41.0541 404.329 -43.6321 401.751 -43.6321 398.571V328.56Z" fill="#0C7AFF"/>
<path fill-rule="evenodd" clip-rule="evenodd" d="M-122.363 305C-127.133 305 -131 308.867 -131 313.637V392.242C-131 392.253 -131 392.264 -131 392.275V487.42C-131 490.6 -128.422 493.178 -125.242 493.178H95.7297C98.9098 493.178 101.488 490.6 101.488 487.42V341.97C101.488 338.79 98.9098 336.212 95.7297 336.212H-37V313.637C-37 308.867 -40.8669 305 -45.6369 305H-122.363Z" fill="#3692FF"/>
</g>
<g opacity="0.5" clip-path="url(#clip2_293_19055)">
<path d="M573.368 328.56C573.368 323.79 577.235 319.923 582.005 319.923H699.485C704.255 319.923 708.122 323.79 708.122 328.56V398.571C708.122 401.751 705.544 404.329 702.364 404.329H579.126C575.946 404.329 573.368 401.751 573.368 398.571V328.56Z" fill="#0C7AFF"/>
<path fill-rule="evenodd" clip-rule="evenodd" d="M494.637 305C489.867 305 486 308.867 486 313.637V392.242C486 392.253 486 392.264 486 392.275V487.42C486 490.6 488.578 493.178 491.758 493.178H712.73C715.91 493.178 718.488 490.6 718.488 487.42V341.97C718.488 338.79 715.91 336.212 712.73 336.212H580V313.637C580 308.867 576.133 305 571.363 305H494.637Z" fill="#3692FF"/>
</g>
</g>
<g clip-path="url(#clip3_293_19055)">
<path d="M264.368 328.194C264.368 323.424 268.235 319.557 273.005 319.557H390.485C395.255 319.557 399.122 323.424 399.122 328.194V398.206C399.122 401.386 396.544 403.964 393.364 403.964H270.126C266.946 403.964 264.368 401.386 264.368 398.206V328.194Z" fill="#0C7AFF"/>
<path fill-rule="evenodd" clip-rule="evenodd" d="M185.637 304.634C180.867 304.634 177 308.501 177 313.271V391.876C177 391.887 177 391.898 177 391.909V487.055C177 490.235 179.578 492.812 182.758 492.812H403.73C406.91 492.812 409.488 490.235 409.488 487.055V341.604C409.488 338.424 406.91 335.846 403.73 335.846H271V313.271C271 308.501 267.133 304.634 262.363 304.634H185.637Z" fill="#3692FF"/>
</g>
<path d="M76 127.711C76 118.62 83.3697 111.251 92.4607 111.251H190.539C199.63 111.251 207 118.62 207 127.711V230.546C207 237.174 201.627 242.546 195 242.546H88C81.3726 242.546 76 237.174 76 230.546V127.711Z" fill="#8698FF"/>
<path d="M124.307 143.469L127.395 130.549C127.573 129.806 128.58 129.688 128.924 130.37L134.898 142.227L141.929 202.586L131.339 203.828L124.307 143.469Z" fill="#E02D2C"/>
<path fill-rule="evenodd" clip-rule="evenodd" d="M134.087 140.752C132.661 141.782 130.96 142.474 129.09 142.694C127.501 142.881 125.953 142.708 124.527 142.24L127.327 130.557C127.505 129.814 128.512 129.696 128.855 130.377L134.087 140.752Z" fill="white"/>
<path fill-rule="evenodd" clip-rule="evenodd" d="M130.235 133.162C129.706 133.422 129.124 133.599 128.505 133.671C127.844 133.749 127.197 133.702 126.588 133.548L127.304 130.559C127.482 129.817 128.489 129.698 128.832 130.38L130.235 133.162Z" fill="#E02D2C"/>
<path d="M149.326 142.226L155.304 130.371C155.648 129.689 156.656 129.808 156.833 130.551L159.916 143.472L152.863 203.828L142.273 202.582L149.326 142.226Z" fill="#292424"/>
<path fill-rule="evenodd" clip-rule="evenodd" d="M159.46 141.861C157.841 142.527 156.034 142.802 154.171 142.582C152.575 142.394 151.102 141.862 149.819 141.069L155.224 130.361C155.567 129.679 156.574 129.798 156.752 130.541L159.46 141.861Z" fill="white"/>
<path fill-rule="evenodd" clip-rule="evenodd" d="M157.549 133.281C156.981 133.408 156.382 133.442 155.771 133.37C155.101 133.291 154.476 133.091 153.913 132.795L155.293 130.061C155.637 129.38 156.643 129.499 156.821 130.241L157.549 133.281Z" fill="#292424"/>
<path d="M118.524 166.747C118.524 164.032 120.725 161.831 123.44 161.831H160.722C163.438 161.831 165.639 164.032 165.639 166.747V208.55C165.639 215.177 160.266 220.55 153.639 220.55H130.524C123.896 220.55 118.524 215.177 118.524 208.55V166.747Z" fill="#5F76FF"/>
<rect x="118.524" y="178.255" width="47.1153" height="20.9418" fill="#FFD875"/>
<path d="M237 127.711C237 118.62 244.37 111.251 253.461 111.251H351.539C360.63 111.251 368 118.62 368 127.711V230.546C368 237.174 362.627 242.546 356 242.546H249C242.373 242.546 237 237.174 237 230.546V127.711Z" fill="#B9D9FF"/>
<path d="M271.979 138.547L327.537 134.944C330.22 134.77 332.491 136.899 332.491 139.588V211.31C332.491 213.88 330.408 215.963 327.838 215.963H271.979V138.547Z" fill="#F3F4F6"/>
<path d="M271.979 138.547L328.74 140.862C331.234 140.964 333.203 143.015 333.203 145.512V214.27C333.203 216.936 330.968 219.057 328.306 218.917L271.979 215.963V138.547Z" fill="#4E93EF"/>
<path d="M308.642 139.974L322.169 140.509V160.309L315.405 156.242L308.642 160.309V139.974Z" fill="white"/>
<path d="M393 127.083C393 118.339 400.088 111.251 408.832 111.251H508.168C516.912 111.251 524 118.339 524 127.083V230.546C524 237.174 518.627 242.546 512 242.546H405C398.373 242.546 393 237.174 393 230.546V127.083Z" fill="#FFB9E3"/>
<path d="M451.794 179.78C451.997 179.111 453.502 177.775 457.894 177.775C462.286 177.775 463.994 179.111 464.299 179.78" stroke="#FF46C0" stroke-width="3.84902"/>
<path d="M448.054 186.555L447.031 187.42V187.534C446.761 187.749 446.452 187.995 446.113 188.267C444.967 189.186 443.434 190.429 441.768 191.784C441.232 192.219 440.683 192.666 440.128 193.117C437.229 195.475 434.172 197.961 432.096 199.615C431.779 199.848 431.209 199.848 430.892 199.615C428.422 197.647 424.498 194.442 421.147 191.689C419.468 190.31 417.938 189.048 416.813 188.118C416.075 187.508 415.558 187.079 415.277 186.844C415.104 186.701 415.02 186.631 415.027 186.638C412.844 184.624 411.662 182.034 411.662 179.378V179.012C411.856 173.92 416.682 169.339 422.791 169.339C423.608 169.339 424.752 169.607 425.915 170.184C426.982 170.714 427.873 171.409 428.45 172.13C429.818 174.65 433.595 174.592 434.853 171.956C435.302 171.259 436.13 170.546 437.223 169.983C438.382 169.387 439.513 169.13 440.197 169.13C446.472 169.13 451.132 173.657 451.326 179.01V179.378C451.326 182.288 450.113 184.815 448.054 186.555Z" stroke="#FF68CC" stroke-width="5.77353"/>
<path d="M500.077 186.555L499.054 187.42V187.534C498.784 187.749 498.475 187.995 498.136 188.267C496.99 189.186 495.457 190.429 493.79 191.784C493.255 192.219 492.706 192.666 492.151 193.117C489.252 195.475 486.195 197.961 484.119 199.615C483.802 199.848 483.232 199.848 482.915 199.615C480.445 197.647 476.521 194.442 473.17 191.689C471.491 190.31 469.961 189.048 468.836 188.118C468.098 187.508 467.581 187.079 467.299 186.844C467.127 186.701 467.042 186.631 467.05 186.638C464.867 184.624 463.684 182.034 463.684 179.378V179.012C463.878 173.92 468.705 169.339 474.814 169.339C475.631 169.339 476.775 169.607 477.938 170.184C479.005 170.714 479.896 171.409 480.473 172.13C481.841 174.65 485.618 174.592 486.876 171.956C487.325 171.259 488.152 170.546 489.245 169.983C490.405 169.387 491.536 169.13 492.22 169.13C498.495 169.13 503.155 173.657 503.349 179.01V179.378C503.349 182.288 502.136 184.815 500.077 186.555Z" stroke="#FF68CC" stroke-width="5.77353"/>
<path d="M414.53 140.505C414.61 140.035 415.285 140.035 415.365 140.505L415.719 142.573C416.405 146.59 418.962 150.041 422.606 151.865C422.842 151.983 422.842 152.32 422.606 152.438C418.962 154.262 416.405 157.713 415.719 161.73L415.365 163.798C415.285 164.268 414.61 164.268 414.53 163.798L414.177 161.73C413.491 157.713 410.933 154.262 407.289 152.438C407.053 152.32 407.053 151.983 407.289 151.865C410.933 150.041 413.491 146.59 414.177 142.573L414.53 140.505Z" fill="white"/>
<path d="M430.801 136.196C430.851 135.897 431.28 135.897 431.33 136.196L431.554 137.526C431.979 140.049 433.575 142.22 435.856 143.379C436.003 143.454 436.003 143.664 435.856 143.739C433.575 144.897 431.979 147.069 431.554 149.592L431.33 150.922C431.28 151.221 430.851 151.221 430.801 150.922L430.577 149.592C430.152 147.069 428.556 144.897 426.275 143.739C426.128 143.664 426.128 143.454 426.275 143.379C428.556 142.22 430.152 140.049 430.577 137.526L430.801 136.196Z" fill="white"/>
<path d="M413.486 266.107C411.67 263.329 412.447 259.6 415.221 257.778C417.995 255.957 421.716 256.732 423.532 259.51L506.271 386.099C508.087 388.877 507.31 392.606 504.535 394.427C501.761 396.249 498.04 395.474 496.225 392.696L413.486 266.107Z" fill="#374151"/>
<path fill-rule="evenodd" clip-rule="evenodd" d="M429.006 267.884L418.96 274.482L413.486 266.107C411.67 263.329 412.447 259.6 415.222 257.779C417.996 255.957 421.717 256.732 423.533 259.51L429.006 267.884Z" fill="#3692FF"/>
<path d="M418.966 274.487L429.005 267.894C429.912 269.282 429.524 271.145 428.138 272.056L423.119 275.352C421.732 276.262 419.873 275.875 418.966 274.487Z" fill="#111827"/>
<defs>
<clipPath id="clip0_293_19055">
<path d="M0 0H588V432C588 438.627 582.627 444 576 444H12C5.37258 444 0 438.627 0 432V0Z" fill="white"/>
</clipPath>
<clipPath id="clip1_293_19055">
<rect width="293" height="162" fill="white" transform="translate(-159 282)"/>
</clipPath>
<clipPath id="clip2_293_19055">
<rect width="293" height="162" fill="white" transform="translate(458 282)"/>
</clipPath>
<clipPath id="clip3_293_19055">
<path d="M149 281.634H442V432C442 438.627 436.627 444 430 444H161C154.373 444 149 438.627 149 432V281.634Z" fill="white"/>
</clipPath>
</defs>
</svg>
