<svg width="996" height="540" viewBox="0 0 996 540" fill="none" xmlns="http://www.w3.org/2000/svg">
<g clip-path="url(#clip0_293_19033)">
<ellipse cx="497" cy="559" rx="499" ry="197" fill="#E3A578"/>
<ellipse cx="497" cy="559" rx="499" ry="197" fill="url(#paint0_linear_293_19033)"/>
<path d="M319.371 438.35C308.971 440.35 303.538 432.85 301.871 429.85L322.871 409.35L334.871 420.85C336.871 425.35 333.371 435.658 319.371 438.35Z" fill="white"/>
<path d="M258.114 154.982C263.471 168.821 253.932 185.412 241.754 190.126C229.576 194.84 211.853 188.801 206.497 174.962C201.14 161.124 208.083 140.7 220.261 135.986C236.5 129.7 252.758 141.143 258.114 154.982Z" fill="#222327"/>
<path d="M264.982 154.385C262.094 168.94 274.354 183.636 287.163 186.177C299.972 188.718 316.386 179.711 319.274 165.155C322.161 150.599 311.797 131.681 298.988 129.14C281.908 125.752 267.869 139.829 264.982 154.385Z" fill="#222327"/>
<path d="M390.893 260.505C390.893 309.474 343.385 327.677 278.582 327.677C213.778 327.677 167.344 309.474 167.344 260.505C167.344 203.543 213.778 153.029 278.582 153.029C343.385 153.029 390.893 199.244 390.893 260.505Z" fill="white"/>
<path d="M233.609 384.619C233.609 363.75 240.314 332.261 246.281 319.126H329.478C335.269 330.781 340.907 360.198 340.486 384.619C339.959 415.145 312.055 417.365 286.257 418.476C260.46 419.586 233.609 410.705 233.609 384.619Z" fill="white"/>
<rect x="308.352" y="327.392" width="44.7486" height="57.0199" rx="22.3743" transform="rotate(-21.5019 308.352 327.392)" fill="#222327"/>
<path d="M306.807 431.388C294.719 428.298 286.359 428.157 266.799 409.946L302.253 388.719C306.446 384.067 316.867 376.197 325.016 381.939C335.202 389.117 342.531 403.67 342.019 406.896C341.609 409.477 336.277 414.731 333.663 417.036L322.75 425.068C321.058 430.16 317.722 434.178 306.807 431.388Z" fill="white"/>
<path d="M337.726 397.875C346.918 408.98 345.349 414.313 342.416 418.376L335.044 408.964C334.312 404.886 332.971 392.129 337.726 397.875Z" fill="white"/>
<path d="M320.103 414.33C319.109 415.822 298.765 426.553 294 428.625C294.621 429.868 303.102 428.812 308.916 426.139C315.5 423.112 321.346 412.466 320.103 414.33Z" fill="#F2F2F2"/>
<path d="M246.975 395.363C253.928 385.328 257.003 377.636 279.732 366.373L285.653 407.212C288.214 412.847 291.371 425.465 283.505 430.851C273.672 437.585 258.441 438.894 255.818 437.205C253.721 435.853 251.039 428.936 249.96 425.646L246.836 412.511C243.009 409.027 240.697 404.424 246.975 395.363Z" fill="white"/>
<path d="M263.021 438.246C249.272 442.579 243.495 439.18 238.78 429.035L253.757 431.585C257.811 432.443 270.134 436.004 263.021 438.246Z" fill="white"/>
<path d="M315 399.612C321.634 423.017 308.495 429.627 255.203 440.21L257.911 417.339L283.5 399.612C299.503 390.457 311.885 388.624 315 399.612Z" fill="white"/>
<path d="M259.806 439.641C251.31 443.59 242.371 440.515 235.948 426.694C229.526 412.873 229.952 401.642 238.448 397.694C246.945 393.746 255.752 392.287 264.5 411.112C270.922 424.933 272.948 433.534 259.806 439.641Z" fill="white"/>
<path d="M252.592 433.85C248.678 435.154 242.588 430.571 240.666 424.802C238.388 417.963 238.938 412.484 244.001 410.797C248.54 409.285 255.544 409.292 258.646 418.606C260.924 425.445 259.265 431.627 252.592 433.85Z" fill="#222327"/>
<path fill-rule="evenodd" clip-rule="evenodd" d="M233.509 383.714C245.324 386.39 260.771 388.087 280.399 387.491C304.138 386.771 324.245 383.799 339.892 380.311C339.613 359.037 335.228 335.193 330.373 322.855C317.118 326.142 301.981 327.637 285.59 327.637C270.615 327.637 256.752 326.389 244.445 323.667C239.118 338.105 233.755 364.838 233.509 383.714Z" fill="#222327"/>
<path d="M305.319 358.902C308.168 333.311 321.171 326.078 333.394 322.556C338.366 321.123 346.445 321.313 350.796 323.178C356.063 325.435 361.983 330.014 366.334 340.58C370.684 351.145 376.171 366.982 378.657 383.141L378.69 383.357C381.178 399.52 384.97 424.16 335.47 424.16C294.687 424.16 302.726 382.197 305.319 358.902Z" fill="#3786E2"/>
<path d="M324.9 374.402C314.086 368.424 310.166 354.81 316.145 343.996L318.451 339.824C323.449 330.783 333.988 326.34 343.951 329.073L348.021 330.189C361.873 333.989 368.608 349.67 361.826 362.331L358.966 367.67C352.987 378.484 339.374 382.404 328.559 376.425L324.9 374.402Z" fill="#222327"/>
<path d="M339.539 392.901C340.196 394.64 338.985 396.708 337.455 397.287C335.925 397.865 333.711 397.092 333.054 395.353C332.397 393.614 333.286 391.063 334.816 390.484C336.856 389.713 338.882 391.162 339.539 392.901Z" fill="#2D68AE"/>
<path d="M347.605 391.898C347.229 393.718 348.75 395.571 350.352 395.902C351.954 396.233 354.019 395.121 354.395 393.3C354.771 391.48 353.491 389.1 351.889 388.769C349.753 388.328 347.981 390.078 347.605 391.898Z" fill="#2D68AE"/>
<path d="M356.527 401.109C356.946 406.404 351.93 408.781 344.877 409.338C337.824 409.896 332.615 408.327 332.196 403.033C331.709 396.874 335.198 391.65 343.427 391C351.657 390.349 356.003 394.485 356.527 401.109Z" fill="#2D68AE"/>
<path d="M342.544 400.618C342.665 402.154 341.848 403.914 340.52 404.019C339.192 404.124 336.947 403.042 336.766 400.747C336.596 398.592 338.853 397.642 341.279 397.846C342.766 397.972 342.422 399.082 342.544 400.618Z" fill="#3475C2"/>
<path d="M340.042 400.585C340.065 400.886 340.176 401.123 340.629 401.087C341.083 401.051 341.155 400.8 341.131 400.499C341.107 400.198 340.907 399.969 340.543 399.997C340.18 400.026 340.018 400.284 340.042 400.585Z" fill="white"/>
<path d="M345.928 400.35C346.05 401.886 347.134 403.496 348.462 403.391C349.79 403.286 351.836 401.865 351.655 399.57C351.484 397.415 349.106 396.832 346.742 397.415C345.293 397.772 345.807 398.814 345.928 400.35Z" fill="#3475C2"/>
<path d="M348.394 399.925C348.418 400.226 348.347 400.477 347.893 400.513C347.439 400.549 347.329 400.312 347.305 400.011C347.281 399.71 347.443 399.452 347.806 399.423C348.17 399.395 348.37 399.624 348.394 399.925Z" fill="white"/>
<path d="M360.396 259.939C360.396 295.837 327.112 309.181 281.71 309.181C236.308 309.181 203.776 295.837 203.776 259.939C203.776 218.181 236.308 181.151 281.71 181.151C327.112 181.151 360.396 215.03 360.396 259.939Z" fill="#F3D6DD"/>
<path d="M277.421 254.933C277.421 266.804 270.182 279.828 260.066 279.828C249.95 279.828 233.609 270.155 233.609 252.421C233.609 235.763 251.262 229.838 269.504 232.88C280.685 234.745 277.421 243.062 277.421 254.933Z" fill="#222327"/>
<path d="M268.958 253.733C268.958 255.514 268.449 256.958 265.905 256.958C263.361 256.958 262.852 255.514 262.852 253.733C262.852 251.953 263.87 250.509 265.905 250.509C267.94 250.509 268.958 251.953 268.958 253.733Z" fill="white"/>
<path d="M307.358 254.933C307.358 266.804 314.067 279.828 323.444 279.828C332.82 279.828 347.966 270.155 347.966 252.421C347.966 235.763 331.604 229.838 314.696 232.88C304.333 234.745 307.358 243.061 307.358 254.933Z" fill="#222327"/>
<path d="M315.202 253.733C315.202 255.514 315.674 256.958 318.032 256.958C320.39 256.958 320.861 255.514 320.861 253.733C320.861 251.953 319.918 250.509 318.032 250.509C316.145 250.509 315.202 251.953 315.202 253.733Z" fill="white"/>
<path d="M281.137 272.222C280.553 271.373 279.392 271.158 278.544 271.742C277.695 272.325 277.48 273.486 278.064 274.334L281.137 272.222ZM293.273 269.549L295.037 268.943C294.778 268.19 294.069 267.685 293.273 267.685C292.477 267.685 291.769 268.19 291.51 268.943L293.273 269.549ZM308.483 274.334C309.066 273.486 308.851 272.325 308.003 271.742C307.154 271.158 305.993 271.373 305.41 272.222L308.483 274.334ZM278.064 274.334C278.624 275.15 279.65 276.253 281.029 277.164C282.419 278.083 284.267 278.872 286.437 278.872V275.143C285.188 275.143 284.045 274.688 283.085 274.053C282.114 273.411 281.431 272.649 281.137 272.222L278.064 274.334ZM286.437 278.872C289.064 278.872 291.044 277 292.304 275.335C293.626 273.587 294.562 271.535 295.037 270.155L291.51 268.943C291.13 270.049 290.357 271.726 289.329 273.086C288.239 274.528 287.227 275.143 286.437 275.143V278.872ZM291.51 270.155C291.984 271.535 292.921 273.587 294.243 275.335C295.502 277 297.482 278.872 300.11 278.872V275.143C299.319 275.143 298.308 274.528 297.217 273.086C296.189 271.726 295.417 270.049 295.037 268.943L291.51 270.155ZM300.11 278.872C302.279 278.872 304.128 278.083 305.518 277.164C306.896 276.253 307.922 275.15 308.483 274.334L305.41 272.222C305.116 272.649 304.433 273.411 303.461 274.053C302.501 274.688 301.359 275.143 300.11 275.143V278.872Z" fill="#222327"/>
<path d="M304.656 267.633C304.656 269.381 296.668 271.611 294.133 272.275C293.632 272.406 293.11 272.406 292.609 272.275C290.074 271.611 282.086 269.381 282.086 267.633C282.086 265.556 288.326 263.334 293.371 263.334C298.416 263.334 304.656 265.556 304.656 267.633Z" fill="#222327"/>
<path d="M295.028 210.594C247.062 213.61 235.364 198.299 233.609 191.838L260.516 176.833L290.934 171.207L333.05 193.089C330.515 198.299 324.525 208.74 295.028 210.594Z" fill="#222327"/>
<path fill-rule="evenodd" clip-rule="evenodd" d="M284.395 327.831C345.845 327.831 390.893 309.628 390.893 260.658C390.893 199.397 345.845 153.183 284.395 153.183C222.946 153.183 178.916 203.696 178.916 260.658C178.916 309.628 222.946 327.831 284.395 327.831ZM281.982 309.022C327.183 309.022 360.319 295.692 360.319 259.832C360.319 214.97 327.183 181.127 281.982 181.127C236.781 181.127 204.394 218.118 204.394 259.832C204.394 295.692 236.781 309.022 281.982 309.022Z" fill="white"/>
<path d="M214.342 301.723C225.372 318.256 240.445 323.476 251.011 326.584L276.108 360.492C275.694 364.636 261.635 382.494 209.926 363.6C150.882 342.026 159.945 289.907 176.046 282.804C197.177 273.481 206.647 290.189 214.342 301.723Z" fill="#222327"/>
<rect x="259.025" y="334.042" width="6.21508" height="18.6452" rx="3.10754" fill="white"/>
<path fill-rule="evenodd" clip-rule="evenodd" d="M259.025 348.958V349.579C259.025 351.296 260.416 352.687 262.132 352.687C263.848 352.687 265.24 351.296 265.24 349.579V348.958H259.025Z" fill="#256FC5"/>
<rect x="288.302" y="334.042" width="6.21508" height="18.6452" rx="3.10754" fill="white"/>
<path fill-rule="evenodd" clip-rule="evenodd" d="M288.302 348.958V349.579C288.302 351.296 289.693 352.687 291.409 352.687C293.125 352.687 294.517 351.296 294.517 349.579V348.958H288.302Z" fill="#256FC5"/>
<path d="M241.839 404.458C242.712 404.134 243.786 404.859 244.24 406.078C244.693 407.297 245.06 408.286 243.48 408.873C241.9 409.46 241.532 408.472 241.079 407.253C240.626 406.034 240.966 404.782 241.839 404.458Z" fill="#222327"/>
<path d="M237.414 406.736C238.196 406.229 239.403 406.703 240.11 407.795C240.818 408.886 241.391 409.771 239.977 410.688C238.562 411.605 237.988 410.72 237.281 409.629C236.573 408.538 236.633 407.242 237.414 406.736Z" fill="#222327"/>
<path d="M247.144 403.173C246.213 403.207 245.497 404.288 245.545 405.588C245.592 406.887 245.63 407.941 247.315 407.88C249 407.819 248.961 406.765 248.914 405.465C248.867 404.166 248.074 403.139 247.144 403.173Z" fill="#222327"/>
<path d="M699.522 456.35C709.922 458.35 715.355 450.85 717.022 447.85L696.022 427.35L684.022 438.85C682.022 443.35 685.522 453.658 699.522 456.35Z" fill="white"/>
<path d="M760.779 172.982C755.422 186.821 764.961 203.412 777.139 208.126C789.317 212.84 807.04 206.801 812.397 192.962C817.753 179.124 810.811 158.7 798.632 153.986C782.394 147.7 766.136 159.143 760.779 172.982Z" fill="#222327"/>
<path d="M753.912 172.385C756.799 186.94 744.539 201.636 731.73 204.177C718.921 206.718 702.507 197.711 699.62 183.155C696.732 168.599 707.096 149.681 719.905 147.14C736.985 143.752 751.024 157.829 753.912 172.385Z" fill="#222327"/>
<path d="M628 278.505C628 327.474 675.508 345.677 740.312 345.677C805.116 345.677 851.549 327.474 851.549 278.505C851.549 221.543 805.116 171.029 740.312 171.029C675.508 171.029 628 217.244 628 278.505Z" fill="white"/>
<path d="M785.285 402.619C785.285 381.75 778.579 350.261 772.612 337.126H689.416C683.624 348.781 677.986 378.198 678.408 402.619C678.934 433.145 706.838 435.365 732.636 436.476C758.434 437.586 785.285 428.705 785.285 402.619Z" fill="white"/>
<rect width="44.7486" height="57.0199" rx="22.3743" transform="matrix(-0.930405 -0.366532 -0.366532 0.930405 710.541 345.392)" fill="#222327"/>
<path d="M712.086 449.388C724.174 446.298 732.535 446.157 752.095 427.946L716.64 406.719C712.448 402.067 702.026 394.197 693.878 399.939C683.692 407.117 676.363 421.67 676.875 424.896C677.284 427.477 682.616 432.731 685.231 435.036L696.144 443.068C697.835 448.16 701.171 452.178 712.086 449.388Z" fill="white"/>
<path d="M681.167 415.875C671.975 426.98 673.544 432.313 676.477 436.376L683.849 426.964C684.581 422.886 685.922 410.129 681.167 415.875Z" fill="white"/>
<path d="M698.79 432.33C699.785 433.822 720.129 444.553 724.894 446.625C724.272 447.868 715.791 446.812 709.977 444.139C703.394 441.112 697.547 430.466 698.79 432.33Z" fill="#F2F2F2"/>
<path d="M771.918 413.363C764.965 403.328 761.89 395.636 739.162 384.373L733.241 425.212C730.679 430.847 727.522 443.465 735.389 448.851C745.222 455.585 760.453 456.894 763.075 455.205C765.173 453.853 767.855 446.936 768.933 443.646L772.058 430.511C775.884 427.027 778.196 422.424 771.918 413.363Z" fill="white"/>
<path d="M755.873 456.246C769.622 460.579 775.399 457.18 780.113 447.035L765.136 449.586C761.082 450.443 748.759 454.004 755.873 456.246Z" fill="white"/>
<path d="M703.894 417.612C697.259 441.017 710.398 447.627 763.69 458.21L760.982 435.339L735.394 417.612C719.39 408.457 707.008 406.624 703.894 417.612Z" fill="white"/>
<path d="M759.087 457.641C767.584 461.59 776.523 458.515 782.945 444.694C789.368 430.873 788.942 419.642 780.445 415.694C771.948 411.746 763.142 410.287 754.394 429.112C747.971 442.933 745.945 451.534 759.087 457.641Z" fill="white"/>
<path d="M766.302 451.85C770.216 453.154 776.306 448.571 778.227 442.802C780.505 435.963 779.956 430.484 774.893 428.797C770.353 427.285 763.349 427.292 760.247 436.606C757.969 443.445 759.628 449.627 766.302 451.85Z" fill="#222327"/>
<path fill-rule="evenodd" clip-rule="evenodd" d="M785.385 401.714C773.57 404.39 758.122 406.087 738.494 405.491C714.756 404.771 694.648 401.799 679.002 398.311C679.281 377.037 683.666 353.193 688.52 340.855C701.776 344.142 716.913 345.637 733.304 345.637C748.279 345.637 762.142 344.389 774.448 341.667C779.775 356.105 785.138 382.838 785.385 401.714Z" fill="#222327"/>
<path d="M713.574 376.902C710.726 351.311 697.723 344.078 685.5 340.556C680.528 339.123 672.448 339.313 668.097 341.178C662.831 343.435 656.91 348.014 652.56 358.58C648.209 369.145 642.722 384.982 640.236 401.141L640.203 401.357C637.716 417.52 633.923 442.16 683.423 442.16C724.207 442.16 716.167 400.197 713.574 376.902Z" fill="#3786E2"/>
<path d="M693.993 392.402C704.808 386.424 708.728 372.81 702.749 361.996L700.442 357.824C695.444 348.783 684.905 344.34 674.943 347.073L670.872 348.189C657.021 351.989 650.286 367.67 657.068 380.331L659.928 385.67C665.906 396.484 679.52 400.404 690.334 394.425L693.993 392.402Z" fill="#222327"/>
<path d="M679.354 410.901C678.697 412.64 679.908 414.708 681.438 415.287C682.968 415.865 685.182 415.092 685.839 413.353C686.497 411.614 685.607 409.063 684.077 408.484C682.037 407.713 680.012 409.162 679.354 410.901Z" fill="#2D68AE"/>
<path d="M671.289 409.898C671.665 411.718 670.143 413.571 668.541 413.902C666.94 414.233 664.875 413.121 664.499 411.3C664.123 409.48 665.402 407.1 667.004 406.769C669.14 406.328 670.913 408.078 671.289 409.898Z" fill="#2D68AE"/>
<path d="M662.366 419.109C661.948 424.404 666.963 426.781 674.016 427.338C681.069 427.896 686.279 426.327 686.697 421.033C687.184 414.874 683.695 409.65 675.466 409C667.237 408.349 662.89 412.485 662.366 419.109Z" fill="#2D68AE"/>
<path d="M676.35 418.618C676.228 420.154 677.045 421.914 678.374 422.019C679.702 422.124 681.946 421.042 682.127 418.747C682.298 416.592 680.041 415.642 677.615 415.846C676.128 415.972 676.471 417.082 676.35 418.618Z" fill="#3475C2"/>
<path d="M678.852 418.585C678.828 418.886 678.718 419.123 678.264 419.087C677.81 419.051 677.739 418.8 677.762 418.499C677.786 418.198 677.987 417.969 678.35 417.997C678.713 418.026 678.876 418.284 678.852 418.585Z" fill="white"/>
<path d="M672.965 418.35C672.844 419.886 671.76 421.496 670.432 421.391C669.104 421.286 667.057 419.865 667.239 417.57C667.409 415.415 669.787 414.832 672.151 415.415C673.6 415.772 673.086 416.814 672.965 418.35Z" fill="#3475C2"/>
<path d="M670.499 417.925C670.475 418.226 670.547 418.477 671.001 418.513C671.455 418.549 671.565 418.312 671.589 418.011C671.612 417.71 671.45 417.452 671.087 417.423C670.724 417.395 670.523 417.624 670.499 417.925Z" fill="white"/>
<path d="M658.497 277.939C658.497 313.837 691.782 327.181 737.184 327.181C782.586 327.181 815.117 313.837 815.117 277.939C815.117 236.181 782.586 199.151 737.184 199.151C691.782 199.151 658.497 233.03 658.497 277.939Z" fill="#F3D6DD"/>
<path d="M741.472 272.933C741.472 284.804 748.711 297.828 758.827 297.828C768.943 297.828 785.285 288.155 785.285 270.421C785.285 253.763 767.631 247.838 749.389 250.88C738.209 252.745 741.472 261.062 741.472 272.933Z" fill="#222327"/>
<path d="M711.536 272.933C711.536 284.804 704.826 297.828 695.45 297.828C686.074 297.828 670.927 288.155 670.927 270.421C670.927 253.763 687.29 247.838 704.198 250.88C714.561 252.745 711.536 261.061 711.536 272.933Z" fill="#222327"/>
<path d="M737.757 290.222C738.34 289.373 739.501 289.158 740.35 289.742C741.198 290.325 741.413 291.486 740.83 292.334L737.757 290.222ZM725.62 287.549L723.857 286.943C724.116 286.19 724.824 285.685 725.62 285.685C726.416 285.685 727.125 286.19 727.383 286.943L725.62 287.549ZM710.41 292.334C709.827 291.486 710.042 290.325 710.891 289.742C711.739 289.158 712.9 289.373 713.483 290.222L710.41 292.334ZM740.83 292.334C740.269 293.15 739.243 294.253 737.865 295.164C736.475 296.083 734.626 296.872 732.457 296.872V293.143C733.705 293.143 734.848 292.688 735.808 292.053C736.78 291.411 737.463 290.649 737.757 290.222L740.83 292.334ZM732.457 296.872C729.829 296.872 727.849 295 726.59 293.335C725.268 291.587 724.331 289.535 723.857 288.155L727.383 286.943C727.764 288.049 728.536 289.726 729.564 291.086C730.655 292.528 731.666 293.143 732.457 293.143V296.872ZM727.383 288.155C726.909 289.535 725.972 291.587 724.65 293.335C723.391 295 721.411 296.872 718.783 296.872V293.143C719.574 293.143 720.585 292.528 721.676 291.086C722.704 289.726 723.476 288.049 723.857 286.943L727.383 288.155ZM718.783 296.872C716.614 296.872 714.766 296.083 713.375 295.164C711.997 294.253 710.971 293.15 710.41 292.334L713.483 290.222C713.777 290.649 714.46 291.411 715.432 292.053C716.392 292.688 717.535 293.143 718.783 293.143V296.872Z" fill="#222327"/>
<path d="M714.237 285.633C714.237 287.381 722.225 289.611 724.76 290.275C725.261 290.406 725.783 290.406 726.284 290.275C728.819 289.611 736.807 287.381 736.807 285.633C736.807 283.556 730.568 281.334 725.522 281.334C720.477 281.334 714.237 283.556 714.237 285.633Z" fill="#222327"/>
<path d="M723.865 228.594C771.831 231.61 783.53 216.299 785.285 209.838L758.377 194.833L727.96 189.207L685.844 211.089C688.378 216.299 694.369 226.74 723.865 228.594Z" fill="#222327"/>
<path fill-rule="evenodd" clip-rule="evenodd" d="M734.498 345.831C673.049 345.831 628 327.628 628 278.658C628 217.397 673.049 171.183 734.498 171.183C795.948 171.183 839.977 221.696 839.977 278.658C839.977 327.628 795.948 345.831 734.498 345.831ZM736.912 327.022C691.711 327.022 658.574 313.692 658.574 277.832C658.574 232.97 691.711 199.127 736.912 199.127C782.112 199.127 814.5 236.118 814.5 277.832C814.5 313.692 782.112 327.022 736.912 327.022Z" fill="white"/>
<path d="M801 327.5C789.97 344.033 778.448 341.476 767.882 344.584L742.785 378.492C743.199 382.636 757.258 400.494 808.968 381.6C868.011 360.026 854.5 300.5 835 296C803.441 288.717 808.695 315.966 801 327.5Z" fill="#222327"/>
<rect width="6.21508" height="18.6452" rx="3.10754" transform="matrix(-1 0 0 1 759.869 352.042)" fill="white"/>
<path fill-rule="evenodd" clip-rule="evenodd" d="M759.869 366.958V367.579C759.869 369.296 758.477 370.687 756.761 370.687C755.045 370.687 753.654 369.296 753.654 367.579V366.958H759.869Z" fill="#256FC5"/>
<rect width="6.21508" height="18.6452" rx="3.10754" transform="matrix(-1 0 0 1 730.592 352.042)" fill="white"/>
<path fill-rule="evenodd" clip-rule="evenodd" d="M730.592 366.958V367.579C730.592 369.296 729.2 370.687 727.484 370.687C725.768 370.687 724.377 369.296 724.377 367.579V366.958H730.592Z" fill="#256FC5"/>
<path d="M777.055 422.458C776.182 422.134 775.107 422.859 774.654 424.078C774.201 425.297 773.833 426.286 775.414 426.873C776.994 427.46 777.361 426.472 777.814 425.253C778.267 424.034 777.927 422.782 777.055 422.458Z" fill="#222327"/>
<path d="M781.479 424.736C780.698 424.229 779.491 424.703 778.783 425.795C778.076 426.886 777.502 427.771 778.917 428.688C780.331 429.605 780.905 428.72 781.613 427.629C782.32 426.538 782.26 425.242 781.479 424.736Z" fill="#222327"/>
<path d="M771.749 421.173C772.68 421.207 773.396 422.288 773.349 423.588C773.302 424.887 773.263 425.941 771.578 425.88C769.894 425.819 769.932 424.765 769.979 423.465C770.026 422.166 770.819 421.139 771.749 421.173Z" fill="#222327"/>
<path d="M752.935 271.486C753.143 270.657 754.8 269 757.286 269C759.772 269 761.429 270.657 762.258 271.486" stroke="white" stroke-width="2.98324" stroke-linecap="round"/>
<path d="M706.323 271.486C706.115 270.657 704.458 269 701.972 269C699.486 269 697.829 270.657 697 271.486" stroke="white" stroke-width="2.98324" stroke-linecap="round"/>
<path fill-rule="evenodd" clip-rule="evenodd" d="M399 68C385.745 68 375 78.7452 375 92V144C375 157.255 385.745 168 399 168H397.5V191.5L438 168H544C557.255 168 568 157.255 568 144V92C568 78.7452 557.255 68 544 68H399Z" fill="#97C7FF"/>
<circle cx="424" cy="118" r="25" fill="#52A2FF"/>
<ellipse cx="424" cy="114.5" rx="2" ry="3.5" fill="#1E86FF"/>
<ellipse cx="439.5" cy="115" rx="1.5" ry="3" fill="#1E86FF"/>
<path fill-rule="evenodd" clip-rule="evenodd" d="M426.748 121.275C426.498 127.915 426.635 133.327 431 133.5C435.365 133.673 438.263 128.382 438.644 121.747L426.748 121.275Z" fill="#1E86FF"/>
<rect x="462" y="95" width="76" height="9" rx="4.5" fill="#52A2FF"/>
<rect x="462" y="113" width="51" height="9" rx="4.5" fill="#52A2FF"/>
<rect x="462" y="131" width="34" height="9" rx="4.5" fill="#52A2FF"/>
<path fill-rule="evenodd" clip-rule="evenodd" d="M594 180C607.255 180 618 190.745 618 204V247C618 260.255 607.255 271 594 271H595.5V294.5L555 271H449C435.745 271 425 260.255 425 247V204C425 190.745 435.745 180 449 180H594Z" fill="#97C7FF"/>
<path d="M451.352 212.417C452.339 210.043 455.702 210.043 456.69 212.417L458.237 216.137C458.653 217.138 459.594 217.821 460.675 217.908L464.691 218.23C467.254 218.435 468.293 221.634 466.34 223.306L463.281 225.927C462.457 226.633 462.098 227.739 462.349 228.793L463.284 232.712C463.881 235.213 461.16 237.19 458.966 235.85L455.528 233.75C454.603 233.185 453.439 233.185 452.514 233.75L449.076 235.85C446.882 237.19 444.161 235.213 444.758 232.712L445.692 228.793C445.944 227.739 445.584 226.633 444.761 225.927L441.701 223.306C439.749 221.634 440.788 218.435 443.351 218.23L447.367 217.908C448.447 217.821 449.388 217.138 449.805 216.137L451.352 212.417Z" fill="#52A2FF"/>
<path d="M486.046 212.417C487.033 210.043 490.396 210.043 491.383 212.417L492.931 216.137C493.347 217.138 494.288 217.821 495.368 217.908L499.384 218.23C501.947 218.435 502.987 221.634 501.034 223.306L497.974 225.927C497.151 226.633 496.791 227.739 497.043 228.793L497.978 232.712C498.574 235.213 495.854 237.19 493.659 235.85L490.221 233.75C489.296 233.185 488.133 233.185 487.208 233.75L483.77 235.85C481.575 237.19 478.855 235.213 479.451 232.712L480.386 228.793C480.637 227.739 480.278 226.633 479.455 225.927L476.395 223.306C474.442 221.634 475.482 218.435 478.045 218.23L482.06 217.908C483.141 217.821 484.082 217.138 484.498 216.137L486.046 212.417Z" fill="#52A2FF"/>
<path d="M518.999 212.2C520 209.864 523.312 209.864 524.313 212.2L526.01 216.159C526.433 217.148 527.37 217.819 528.442 217.903L532.688 218.233C535.275 218.434 536.307 221.678 534.312 223.337L531.206 225.92C530.355 226.627 529.983 227.758 530.247 228.832L531.218 232.783C531.829 235.272 529.141 237.266 526.937 235.96L523.13 233.703C522.221 233.164 521.091 233.164 520.182 233.703L516.376 235.96C514.172 237.266 511.483 235.272 512.095 232.783L513.066 228.832C513.33 227.758 512.957 226.627 512.107 225.92L509.001 223.337C507.005 221.678 508.037 218.434 510.624 218.233L514.87 217.903C515.942 217.819 516.879 217.148 517.303 216.159L518.999 212.2Z" fill="#52A2FF"/>
<path d="M551.929 212.417C552.917 210.043 556.28 210.043 557.267 212.417L558.814 216.137C559.231 217.138 560.172 217.821 561.252 217.908L565.268 218.23C567.831 218.435 568.87 221.634 566.918 223.306L563.858 225.927C563.035 226.633 562.675 227.739 562.927 228.793L563.861 232.712C564.458 235.213 561.737 237.19 559.543 235.85L556.105 233.75C555.18 233.185 554.016 233.185 553.091 233.75L549.653 235.85C547.459 237.19 544.738 235.213 545.335 232.712L546.27 228.793C546.521 227.739 546.162 226.633 545.338 225.927L542.279 223.306C540.326 221.634 541.365 218.435 543.928 218.23L547.944 217.908C549.025 217.821 549.966 217.138 550.382 216.137L551.929 212.417Z" fill="#52A2FF"/>
<path d="M584.31 212.417C585.298 210.043 588.661 210.043 589.648 212.417L591.195 216.137C591.611 217.138 592.553 217.821 593.633 217.908L597.649 218.23C600.212 218.435 601.251 221.634 599.299 223.306L596.239 225.927C595.416 226.633 595.056 227.739 595.308 228.793L596.242 232.712C596.839 235.213 594.118 237.19 591.924 235.85L588.486 233.75C587.561 233.185 586.397 233.185 585.472 233.75L582.034 235.85C579.84 237.19 577.119 235.213 577.716 232.712L578.651 228.793C578.902 227.739 578.543 226.633 577.719 225.927L574.66 223.306C572.707 221.634 573.746 218.435 576.309 218.23L580.325 217.908C581.406 217.821 582.347 217.138 582.763 216.137L584.31 212.417Z" fill="#52A2FF"/>
</g>
<defs>
<linearGradient id="paint0_linear_293_19033" x1="497" y1="362" x2="497" y2="756" gradientUnits="userSpaceOnUse">
<stop stop-color="#E18745"/>
<stop offset="1" stop-color="#D7A37E" stop-opacity="0"/>
</linearGradient>
<clipPath id="clip0_293_19033">
<rect width="996" height="540" fill="white"/>
</clipPath>
</defs>
</svg>
