<svg xmlns="http://www.w3.org/2000/svg" enable-background="new 0 0 47.5 47.5" viewBox="0 0 47.5 47.5" id="bear"><defs><clipPath id="a"><path d="M0 38h38V0H0v38Z"></path></clipPath></defs><g clip-path="url(#a)" transform="matrix(1.25 0 0 -1.25 0 47.5)"><path fill="#c1694f" d="M0 0a6 6 0 0 0-12 0A6 6 0 0 0 0 0" transform="translate(14 31)"></path><path fill="#c1694f" d="M0 0a6 6 0 0 0-12 0A6 6 0 0 0 0 0" transform="translate(36 31)"></path><path fill="#e6aaaa" d="M0 0a4 4 0 1 0-8 0 4 4 0 0 0 8 0" transform="translate(12 31)"></path><path fill="#e6aaaa" d="M0 0a4 4 0 1 0-8 0 4 4 0 0 0 8 0" transform="translate(34 31)"></path><path fill="#c1694f" d="M0 0s-1.308 22-17 22S-34 0-34 0c0-5.872 4.499-10.323 12.216-11.61a5.98 5.98 0 0 1 9.568 0C-4.499-10.323 0-5.872 0 0" transform="translate(36 15)"></path><path fill="#dd2e44" d="M0 0a4 4 0 1 0-8 0 4 4 0 0 0 8 0" transform="translate(23 7)"></path><path fill="#d99e82" d="M0 0s-11-3.687-11-7a6 6 0 0 1 6-6 5.99 5.99 0 0 1 5 2.686A5.99 5.99 0 0 1 5-13a6 6 0 0 1 6 6C11-3.687 0 0 0 0" transform="translate(19 17)"></path><path fill="#272b2b" d="M0 0s0 2 2 2 2-2 2-2v-2s0-2-2-2-2 2-2 2v2z" transform="translate(12 20)"></path><path fill="#272b2b" d="M0 0s0 2 2 2 2-2 2-2v-2s0-2-2-2-2 2-2 2v2z" transform="translate(22 20)"></path><path fill="#272b2b" d="M0 0c-1.625-1 3.25-4 4.875-4s6.499 3 4.874 4S1.625 1 0 0" transform="translate(14.126 12)"></path></g></svg>