<svg width="40" height="41" viewBox="0 0 40 41" fill="none" xmlns="http://www.w3.org/2000/svg">
<rect y="0.0168457" width="40" height="40.1354" rx="11.1782" fill="#3692FF"/>
<path d="M19.3143 11.191C19.8136 12.9164 18.4934 14.8178 16.9801 15.2586C15.4668 15.6995 13.3994 14.7851 12.9001 13.0596C12.4008 11.3342 13.4489 8.94339 14.9622 8.50251C16.9801 7.91464 18.815 9.46548 19.3143 11.191Z" fill="#222327"/>
<path d="M20.1465 11.191C19.6472 12.9164 20.9674 14.8178 22.4807 15.2586C23.994 15.6995 26.0614 14.7851 26.5607 13.0596C27.06 11.3342 26.0119 8.94339 24.4986 8.50251C22.4807 7.91464 20.6458 9.46548 20.1465 11.191Z" fill="#222327"/>
<path d="M29.5171 23.7966C29.5171 28.1854 25.2137 29.8168 19.3436 29.8168C13.4735 29.8168 9.26746 28.1854 9.26746 23.7966C9.26746 18.6915 13.4735 14.1643 19.3436 14.1643C25.2137 14.1643 29.5171 18.3062 29.5171 23.7966Z" fill="#F3D6DD"/>
<path d="M17.4004 22.9301C17.4004 24.3675 16.4778 25.9444 15.1885 25.9444C13.8992 25.9444 11.8165 24.7732 11.8165 22.626C11.8165 20.609 14.0665 19.8916 16.3914 20.2599C17.8164 20.4857 17.4004 21.4927 17.4004 22.9301Z" fill="#222327"/>
<path d="M16.322 22.7849C16.322 23.0005 16.2571 23.1753 15.9329 23.1753C15.6087 23.1753 15.5438 23.0005 15.5438 22.7849C15.5438 22.5693 15.6735 22.3945 15.9329 22.3945C16.1923 22.3945 16.322 22.5693 16.322 22.7849Z" fill="white"/>
<path d="M21.3221 22.9301C21.3221 24.3675 22.2447 25.9444 23.534 25.9444C24.8233 25.9444 26.906 24.7732 26.906 22.626C26.906 20.609 24.6561 19.8916 22.3311 20.2599C20.9061 20.4857 21.3221 21.4927 21.3221 22.9301Z" fill="#222327"/>
<path d="M22.4018 22.7849C22.4018 23.0005 22.4666 23.1753 22.7909 23.1753C23.1151 23.1753 23.1799 23.0005 23.1799 22.7849C23.1799 22.5693 23.0502 22.3945 22.7909 22.3945C22.5315 22.3945 22.4018 22.5693 22.4018 22.7849Z" fill="white"/>
<path d="M17.8753 25.0093C17.7968 24.8947 17.6403 24.8655 17.5257 24.944C17.4111 25.0225 17.3819 25.179 17.4604 25.2936L17.8753 25.0093ZM19.3178 24.7L19.5557 24.6184C19.5209 24.5168 19.4253 24.4484 19.3178 24.4484C19.2103 24.4484 19.1147 24.5168 19.0799 24.6184L19.3178 24.7ZM21.1753 25.2936C21.2538 25.179 21.2245 25.0225 21.1099 24.944C20.9954 24.8655 20.8388 24.8947 20.7603 25.0093L21.1753 25.2936ZM17.4604 25.2936C17.5299 25.395 17.6561 25.531 17.8253 25.6432C17.9961 25.7565 18.2243 25.8545 18.4928 25.8545V25.3515C18.3489 25.3515 18.2162 25.2989 18.1034 25.2241C17.989 25.1482 17.909 25.0584 17.8753 25.0093L17.4604 25.2936ZM18.4928 25.8545C18.8234 25.8545 19.0692 25.6187 19.2222 25.4157C19.3837 25.2014 19.4979 24.9503 19.5557 24.7815L19.0799 24.6184C19.0346 24.7506 18.9425 24.951 18.8205 25.113C18.6899 25.2862 18.5748 25.3515 18.4928 25.3515V25.8545ZM19.0799 24.7815C19.1377 24.9503 19.2519 25.2014 19.4134 25.4157C19.5664 25.6187 19.8123 25.8545 20.1428 25.8545V25.3515C20.0608 25.3515 19.9457 25.2862 19.8151 25.113C19.6931 24.951 19.601 24.7506 19.5557 24.6184L19.0799 24.7815ZM20.1428 25.8545C20.4114 25.8545 20.6395 25.7565 20.8103 25.6432C20.9796 25.531 21.1058 25.395 21.1753 25.2936L20.7603 25.0093C20.7267 25.0584 20.6466 25.1482 20.5323 25.2241C20.4195 25.2989 20.2867 25.3515 20.1428 25.3515V25.8545Z" fill="#222327"/>
<path d="M20.691 24.4678C20.691 24.677 19.7489 24.9433 19.4319 25.027C19.3641 25.0449 19.2942 25.0449 19.2265 25.027C18.9094 24.9433 17.9674 24.677 17.9674 24.4678C17.9674 24.2162 18.7203 23.9473 19.3292 23.9473C19.938 23.9473 20.691 24.2162 20.691 24.4678Z" fill="#222327"/>
<path d="M19.1664 17.7765C15.3822 17.7765 13.9915 16.4471 13.7665 15.6695L15.5664 13.7129L19.4664 13.0356L24.8663 15.6695C24.5413 16.2966 22.9548 17.7765 19.1664 17.7765Z" fill="#222327"/>
<path fill-rule="evenodd" clip-rule="evenodd" d="M19.69 31.9994C27.5101 31.9994 33.2429 29.7954 33.2429 23.8662C33.2429 16.4487 27.5101 10.853 19.69 10.853C11.87 10.853 6.26685 16.9692 6.26685 23.8662C6.26685 29.7954 11.87 31.9994 19.69 31.9994ZM19.3826 29.7223C25.1348 29.7223 29.3518 28.1084 29.3518 23.7663C29.3518 18.3344 25.1348 14.2367 19.3826 14.2367C13.6303 14.2367 9.50878 18.7156 9.50878 23.7663C9.50878 28.1084 13.6303 29.7223 19.3826 29.7223Z" fill="white"/>
</svg>
