<svg width="22" height="15" viewBox="0 0 22 15" fill="none" xmlns="http://www.w3.org/2000/svg">
<path d="M11.0024 11.5769C12.1354 11.5769 13.0978 11.1803 13.8895 10.3871C14.6811 9.59394 15.077 8.6308 15.077 7.4977C15.077 6.36462 14.6804 5.40224 13.8872 4.61058C13.094 3.81891 12.1309 3.42308 10.9978 3.42308C9.86472 3.42308 8.90235 3.81966 8.11068 4.61282C7.31901 5.40601 6.92318 6.36915 6.92318 7.50225C6.92318 8.63533 7.31976 9.59771 8.11293 10.3894C8.90611 11.181 9.86926 11.5769 11.0024 11.5769ZM11.0001 10.2C10.2501 10.2 9.61258 9.93748 9.08758 9.41248C8.56258 8.88748 8.30008 8.24998 8.30008 7.49998C8.30008 6.74998 8.56258 6.11248 9.08758 5.58748C9.61258 5.06248 10.2501 4.79998 11.0001 4.79998C11.7501 4.79998 12.3876 5.06248 12.9126 5.58748C13.4376 6.11248 13.7001 6.74998 13.7001 7.49998C13.7001 8.24998 13.4376 8.88748 12.9126 9.41248C12.3876 9.93748 11.7501 10.2 11.0001 10.2ZM11.0001 14.5C8.89496 14.5 6.96966 13.9384 5.22415 12.8153C3.47864 11.6923 2.08537 10.2147 1.04436 8.38265C0.961022 8.23907 0.900122 8.09436 0.861655 7.94853C0.823188 7.80268 0.803955 7.65299 0.803955 7.49948C0.803955 7.34596 0.823188 7.19645 0.861655 7.05095C0.900122 6.90543 0.961022 6.76088 1.04436 6.6173C2.08537 4.78525 3.47864 3.30769 5.22415 2.18463C6.96966 1.06154 8.89496 0.5 11.0001 0.5C13.1052 0.5 15.0305 1.06154 16.776 2.18463C18.5215 3.30769 19.9148 4.78525 20.9558 6.6173C21.0391 6.76088 21.1 6.90559 21.1385 7.05143C21.177 7.19728 21.1962 7.34696 21.1962 7.50048C21.1962 7.65399 21.177 7.8035 21.1385 7.949C21.1 8.09452 21.0391 8.23907 20.9558 8.38265C19.9148 10.2147 18.5215 11.6923 16.776 12.8153C15.0305 13.9384 13.1052 14.5 11.0001 14.5ZM11.0001 13C12.8834 13 14.6126 12.5041 16.1876 11.5125C17.7626 10.5208 18.9667 9.18331 19.8001 7.49998C18.9667 5.81664 17.7626 4.47914 16.1876 3.48748C14.6126 2.49581 12.8834 1.99998 11.0001 1.99998C9.11675 1.99998 7.38758 2.49581 5.81258 3.48748C4.23758 4.47914 3.03341 5.81664 2.20008 7.49998C3.03341 9.18331 4.23758 10.5208 5.81258 11.5125C7.38758 12.5041 9.11675 13 11.0001 13Z" fill="#4B5563"/>
</svg>
