<svg width="153" height="51" viewBox="0 0 153 51" fill="none" xmlns="http://www.w3.org/2000/svg">
<rect y="5.01685" width="40" height="40.1354" rx="11.1782" fill="#3692FF"/>
<path d="M19.3143 16.1911C19.8136 17.9166 18.4934 19.8179 16.9801 20.2588C15.4668 20.6996 13.3993 19.7852 12.9 18.0598C12.4007 16.3343 13.4489 13.9435 14.9622 13.5026C16.9801 12.9148 18.815 14.4656 19.3143 16.1911Z" fill="#222327"/>
<path d="M20.1464 16.1911C19.6471 17.9166 20.9673 19.8179 22.4806 20.2588C23.9939 20.6996 26.0614 19.7852 26.5607 18.0598C27.06 16.3343 26.0118 13.9435 24.4985 13.5026C22.4806 12.9148 20.6457 14.4656 20.1464 16.1911Z" fill="#222327"/>
<path d="M29.5171 28.7967C29.5171 33.1855 25.2137 34.8169 19.3436 34.8169C13.4735 34.8169 9.26746 33.1855 9.26746 28.7967C9.26746 23.6916 13.4735 19.1644 19.3436 19.1644C25.2137 19.1644 29.5171 23.3063 29.5171 28.7967Z" fill="#F3D6DD"/>
<path d="M17.4004 27.9301C17.4004 29.3675 16.4778 30.9444 15.1885 30.9444C13.8992 30.9444 11.8165 29.7732 11.8165 27.626C11.8165 25.609 14.0664 24.8916 16.3914 25.2599C17.8163 25.4857 17.4004 26.4927 17.4004 27.9301Z" fill="#222327"/>
<path d="M16.322 27.785C16.322 28.0007 16.2571 28.1754 15.9329 28.1754C15.6087 28.1754 15.5438 28.0007 15.5438 27.785C15.5438 27.5694 15.6735 27.3947 15.9329 27.3947C16.1923 27.3947 16.322 27.5694 16.322 27.785Z" fill="white"/>
<path d="M21.3222 27.9302C21.3222 29.3676 22.2448 30.9445 23.5341 30.9445C24.8233 30.9445 26.9061 29.7733 26.9061 27.6261C26.9061 25.6091 24.6561 24.8917 22.3312 25.2601C20.9062 25.4858 21.3222 26.4928 21.3222 27.9302Z" fill="#222327"/>
<path d="M22.4017 27.785C22.4017 28.0007 22.4666 28.1754 22.7908 28.1754C23.115 28.1754 23.1799 28.0007 23.1799 27.785C23.1799 27.5694 23.0502 27.3947 22.7908 27.3947C22.5314 27.3947 22.4017 27.5694 22.4017 27.785Z" fill="white"/>
<path d="M17.8752 30.0092C17.7967 29.8946 17.6402 29.8654 17.5256 29.9439C17.411 30.0224 17.3817 30.1789 17.4603 30.2935L17.8752 30.0092ZM19.3177 29.6998L19.5556 29.6183C19.5208 29.5166 19.4252 29.4483 19.3177 29.4483C19.2102 29.4483 19.1146 29.5166 19.0798 29.6183L19.3177 29.6998ZM21.1751 30.2935C21.2536 30.1789 21.2244 30.0224 21.1098 29.9439C20.9952 29.8654 20.8387 29.8946 20.7602 30.0092L21.1751 30.2935ZM17.4603 30.2935C17.5297 30.3949 17.6559 30.5308 17.8252 30.6431C17.996 30.7564 18.2241 30.8544 18.4927 30.8544V30.3514C18.3488 30.3514 18.216 30.2988 18.1032 30.224C17.9889 30.1481 17.9088 30.0583 17.8752 30.0092L17.4603 30.2935ZM18.4927 30.8544C18.8232 30.8544 19.0691 30.6186 19.2221 30.4156C19.3836 30.2013 19.4978 29.9502 19.5556 29.7813L19.0798 29.6183C19.0345 29.7505 18.9424 29.9509 18.8204 30.1128C18.6898 30.2861 18.5747 30.3514 18.4927 30.3514V30.8544ZM19.0798 29.7813C19.1376 29.9502 19.2518 30.2013 19.4133 30.4156C19.5663 30.6186 19.8122 30.8544 20.1427 30.8544V30.3514C20.0607 30.3514 19.9456 30.2861 19.815 30.1128C19.693 29.9509 19.6009 29.7505 19.5556 29.6183L19.0798 29.7813ZM20.1427 30.8544C20.4112 30.8544 20.6394 30.7564 20.8102 30.6431C20.9794 30.5308 21.1056 30.3949 21.1751 30.2935L20.7602 30.0092C20.7265 30.0583 20.6465 30.1481 20.5321 30.224C20.4193 30.2988 20.2866 30.3514 20.1427 30.3514V30.8544Z" fill="#222327"/>
<path d="M20.6908 29.4678C20.6908 29.677 19.7488 29.9433 19.4318 30.027C19.364 30.0449 19.2941 30.0449 19.2264 30.027C18.9093 29.9433 17.9673 29.677 17.9673 29.4678C17.9673 29.2162 18.7202 28.9473 19.3291 28.9473C19.9379 28.9473 20.6908 29.2162 20.6908 29.4678Z" fill="#222327"/>
<path d="M19.1663 22.7768C15.3821 22.7768 13.9914 21.4473 13.7664 20.6697L15.5664 18.7132L19.4663 18.0359L24.8662 20.6697C24.5412 21.2968 22.9547 22.7768 19.1663 22.7768Z" fill="#222327"/>
<path fill-rule="evenodd" clip-rule="evenodd" d="M19.69 36.9995C27.51 36.9995 33.2429 34.7956 33.2429 28.8663C33.2429 21.4488 27.51 15.8531 19.69 15.8531C11.87 15.8531 6.26678 21.9693 6.26678 28.8663C6.26678 34.7956 11.87 36.9995 19.69 36.9995ZM19.3825 34.7225C25.1347 34.7225 29.3517 33.1085 29.3517 28.7664C29.3517 23.3345 25.1347 19.2368 19.3825 19.2368C13.6303 19.2368 9.50872 23.7157 9.50872 28.7664C9.50872 33.1085 13.6303 34.7225 19.3825 34.7225Z" fill="white"/>
<path d="M70.8926 22.152H73.9685V25.7406H70.8926V33.0204H66.2786V28.509C62.9976 29.1754 59.7422 29.5343 55.0001 29.5343H49.6171V26.0226H51.6678V18.7428H50.1298V15.2823H64.2792V18.7428H62.7413V25.6381C63.9973 25.4843 65.1764 25.3048 66.2786 25.0998V15.026H70.8926V22.152ZM52.1548 39.121V31.508H56.8713V35.5581H71.4052V39.121H52.1548ZM56.2817 26.0226C56.9225 25.9969 57.5377 25.9969 58.1273 25.9713V18.7428H56.2817V26.0226ZM99.6016 23.9463V27.5349H96.5256V39.121H91.9117V35.0967C88.6306 36.0451 85.3752 36.5834 80.6331 36.5834H76.0192V15.795H89.1433V19.2554H80.6331V33.0716C85.324 33.0716 88.6563 32.6103 91.9117 31.6875V15.026H96.5256V23.9463H99.6016ZM125.235 23.9463V27.5349H122.159V39.121H117.545V15.026H122.159V23.9463H125.235ZM101.652 36.5834V15.795H115.058V36.5834H101.652ZM106.266 33.0716H110.496V19.3067H106.266V33.0716ZM144.844 15.026H149.33V28.9191H144.844V15.026ZM125.747 26.1764C128.746 25.5612 131.002 24.6127 132.258 23.408L127.285 23.7156V20.3833H133.335V18.7428H127.798V15.2823H137.821V19.8962H139.282V15.1541H143.639V28.9191H139.282V23.4849H137.154C135.795 26.1251 132.386 28.3039 127.208 29.6112L125.747 26.1764ZM128.541 35.4555C134.873 35.2248 136.718 33.9175 136.718 31.6875V29.7393H141.332V32.0976C141.332 32.7128 141.255 33.3023 141.102 33.8406C144.075 34.0457 147.023 34.4558 149.33 34.9941L148.099 39.121C145.459 38.1983 141.768 37.3011 138.795 36.8141C136.667 38.2495 133.258 38.9416 129.028 39.121L128.541 35.4555Z" fill="#3692FF"/>
</svg>
