<svg width="396" height="132" viewBox="0 0 396 132" fill="none" xmlns="http://www.w3.org/2000/svg">
<rect y="12.9839" width="103.529" height="103.88" rx="28.9317" fill="#3692FF"/>
<path d="M49.9906 41.9046C51.283 46.3706 47.866 51.2916 43.9492 52.4327C40.0324 53.5738 34.6813 51.2071 33.389 46.7412C32.0967 42.2752 34.8096 36.0874 38.7264 34.9463C43.9492 33.4247 48.6983 37.4387 49.9906 41.9046Z" fill="#222327"/>
<path d="M52.1446 41.9046C50.8523 46.3706 54.2693 51.2916 58.1861 52.4327C62.1029 53.5738 67.4539 51.2071 68.7463 46.7412C70.0386 42.2752 67.3256 36.0874 63.4089 34.9463C58.1861 33.4247 53.4369 37.4387 52.1446 41.9046Z" fill="#222327"/>
<path d="M76.3971 74.5303C76.3971 85.8895 65.2589 90.1119 50.0657 90.1119C34.8725 90.1119 23.9863 85.8895 23.9863 74.5303C23.9863 61.317 34.8725 49.5996 50.0657 49.5996C65.2589 49.5996 76.3971 60.3198 76.3971 74.5303Z" fill="#F3D6DD"/>
<path d="M45.0369 72.2877C45.0369 76.008 42.649 80.0893 39.312 80.0893C35.975 80.0893 30.5845 77.058 30.5845 71.5006C30.5845 66.28 36.4079 64.4233 42.4254 65.3767C46.1136 65.961 45.0369 68.5674 45.0369 72.2877Z" fill="#222327"/>
<path d="M42.2465 71.9128C42.2465 72.4708 42.0786 72.9232 41.2394 72.9232C40.4003 72.9232 40.2324 72.4708 40.2324 71.9128C40.2324 71.3547 40.5681 70.9023 41.2394 70.9023C41.9108 70.9023 42.2465 71.3547 42.2465 71.9128Z" fill="white"/>
<path d="M55.1877 72.2877C55.1877 76.008 57.5756 80.0893 60.9126 80.0893C64.2496 80.0893 69.6401 77.058 69.6401 71.5006C69.6401 66.28 63.8167 64.4233 57.7992 65.3767C54.111 65.961 55.1877 68.5674 55.1877 72.2877Z" fill="#222327"/>
<path d="M57.9811 71.9128C57.9811 72.4708 58.1489 72.9232 58.9881 72.9232C59.8273 72.9232 59.9951 72.4708 59.9951 71.9128C59.9951 71.3547 59.6594 70.9023 58.9881 70.9023C58.3167 70.9023 57.9811 71.3547 57.9811 71.9128Z" fill="white"/>
<path d="M46.2655 77.6708C46.0623 77.3742 45.6572 77.2985 45.3606 77.5018C45.064 77.705 44.9883 78.1101 45.1915 78.4067L46.2655 77.6708ZM49.999 76.8701L50.6148 76.6591C50.5247 76.396 50.2772 76.2192 49.999 76.2192C49.7208 76.2192 49.4734 76.396 49.3832 76.6591L49.999 76.8701ZM54.8065 78.4067C55.0097 78.1101 54.934 77.705 54.6375 77.5018C54.3409 77.2985 53.9357 77.3742 53.7325 77.6708L54.8065 78.4067ZM45.1915 78.4067C45.3714 78.6691 45.698 79.021 46.136 79.3116C46.5781 79.6048 47.1686 79.8583 47.8638 79.8583V78.5564C47.4913 78.5564 47.1477 78.4204 46.8557 78.2267C46.5598 78.0303 46.3526 77.7979 46.2655 77.6708L45.1915 78.4067ZM47.8638 79.8583C48.7192 79.8583 49.3555 79.2481 49.7515 78.7227C50.1696 78.1679 50.4651 77.5182 50.6148 77.0811L49.3832 76.6591C49.266 77.0012 49.0277 77.52 48.7118 77.9391C48.3738 78.3876 48.0759 78.5564 47.8638 78.5564V79.8583ZM49.3832 77.0811C49.5329 77.5182 49.8284 78.1679 50.2465 78.7227C50.6425 79.2481 51.2788 79.8583 52.1343 79.8583V78.5564C51.9221 78.5564 51.6242 78.3876 51.2862 77.9391C50.9703 77.52 50.732 77.0012 50.6148 76.6591L49.3832 77.0811ZM52.1343 79.8583C52.8294 79.8583 53.42 79.6048 53.862 79.3116C54.3 79.021 54.6267 78.6691 54.8065 78.4067L53.7325 77.6708C53.6455 77.7979 53.4383 78.0303 53.1423 78.2267C52.8504 78.4204 52.5068 78.5564 52.1343 78.5564V79.8583Z" fill="#222327"/>
<path d="M53.5526 76.2686C53.5526 76.8101 51.1144 77.4994 50.2938 77.716C50.1184 77.7623 49.9376 77.7623 49.7622 77.716C48.9416 77.4994 46.5034 76.8101 46.5034 76.2686C46.5034 75.6176 48.4522 74.9214 50.028 74.9214C51.6038 74.9214 53.5526 75.6176 53.5526 76.2686Z" fill="#222327"/>
<path d="M49.6071 58.9483C39.8126 58.9483 36.2132 55.5073 35.6309 53.4947L40.2896 48.4307L50.3835 46.6777L64.3597 53.4947C63.5185 55.1178 59.4123 58.9483 49.6071 58.9483Z" fill="#222327"/>
<path fill-rule="evenodd" clip-rule="evenodd" d="M50.9626 95.7601C71.2026 95.7601 86.0406 90.0557 86.0406 74.7094C86.0406 55.5112 71.2026 41.0283 50.9626 41.0283C30.7226 41.0283 16.2202 56.8584 16.2202 74.7094C16.2202 90.0557 30.7226 95.7601 50.9626 95.7601ZM50.1664 89.8667C65.0545 89.8667 75.969 85.6894 75.969 74.4511C75.969 60.3921 65.0545 49.7862 50.1664 49.7862C35.2783 49.7862 24.6107 61.3787 24.6107 74.4511C24.6107 85.6894 35.2783 89.8667 50.1664 89.8667Z" fill="white"/>
<path d="M183.487 54.3351H191.448V63.6233H183.487V82.4651H171.545V70.7885C163.053 72.5135 154.627 73.4423 142.353 73.4423H128.421V64.3531H133.728V45.5113H129.748V36.5548H166.37V45.5113H162.389V63.358C165.64 62.9599 168.692 62.4955 171.545 61.9647V35.8914H183.487V54.3351ZM134.989 98.2551V78.5508H147.196V89.0332H184.814V98.2551H134.989ZM145.67 64.3531C147.329 64.2868 148.921 64.2868 150.447 64.2204V45.5113H145.67V64.3531ZM257.792 58.9792V68.2674H249.831V98.2551H237.889V87.839C229.397 90.2938 220.971 91.687 208.698 91.687H196.756V37.8817H230.724V46.8382H208.698V82.5978C220.839 82.5978 229.463 81.4036 237.889 79.0152V35.8914H249.831V58.9792H257.792ZM324.137 58.9792V68.2674H316.176V98.2551H304.234V35.8914H316.176V58.9792H324.137ZM263.1 91.687V37.8817H297.798V91.687H263.1ZM275.042 82.5978H285.989V46.9709H275.042V82.5978ZM374.89 35.8914H386.501V71.85H374.89V35.8914ZM325.464 64.7512C333.226 63.1589 339.064 60.7042 342.315 57.586L329.444 58.3821V49.7573H345.102V45.5113H330.771V36.5548H356.712V48.4968H360.494V36.2231H371.772V71.85H360.494V57.785H354.987C351.471 64.6185 342.647 70.2578 329.245 73.6413L325.464 64.7512ZM332.695 88.7679C349.082 88.1708 353.859 84.7872 353.859 79.0152V73.9731H365.801V80.0767C365.801 81.669 365.602 83.1949 365.204 84.5882C372.9 85.1189 380.53 86.1804 386.501 87.5737L383.316 98.2551C376.483 95.8667 366.929 93.5447 359.233 92.2841C353.726 95.9994 344.903 97.7907 333.956 98.2551L332.695 88.7679Z" fill="#3692FF"/>
</svg>
