<svg width="888" height="461" viewBox="0 0 888 461" fill="none" xmlns="http://www.w3.org/2000/svg">
<rect width="888" height="461" fill="white"/>
<rect x="158" y="153.69" width="149.822" height="149.524" rx="41.8684" fill="#3692FF"/>
<path d="M230.34 195.319C232.21 201.748 227.265 208.831 221.597 210.473C215.929 212.116 208.185 208.709 206.315 202.281C204.445 195.853 208.371 186.946 214.039 185.304C221.597 183.113 228.47 188.891 230.34 195.319Z" fill="#222327"/>
<path d="M233.457 195.319C231.587 201.748 236.532 208.831 242.2 210.473C247.868 212.116 255.612 208.709 257.482 202.281C259.352 195.853 255.426 186.946 249.758 185.304C242.2 183.113 235.327 188.891 233.457 195.319Z" fill="#222327"/>
<path d="M268.557 242.281C268.557 258.632 252.438 264.71 230.452 264.71C208.465 264.71 192.711 258.632 192.711 242.281C192.711 223.262 208.465 206.396 230.452 206.396C252.438 206.396 268.557 221.827 268.557 242.281Z" fill="#F3D6DD"/>
<path d="M223.174 239.053C223.174 244.408 219.718 250.283 214.889 250.283C210.06 250.283 202.259 245.92 202.259 237.92C202.259 230.406 210.686 227.733 219.394 229.106C224.732 229.947 223.174 233.698 223.174 239.053Z" fill="#222327"/>
<path d="M219.135 238.513C219.135 239.316 218.892 239.967 217.678 239.967C216.464 239.967 216.221 239.316 216.221 238.513C216.221 237.709 216.706 237.058 217.678 237.058C218.65 237.058 219.135 237.709 219.135 238.513Z" fill="white"/>
<path d="M237.863 239.054C237.863 244.409 241.319 250.283 246.148 250.283C250.977 250.283 258.778 245.92 258.778 237.921C258.778 230.406 250.351 227.734 241.643 229.106C236.305 229.947 237.863 233.699 237.863 239.054Z" fill="#222327"/>
<path d="M241.906 238.513C241.906 239.316 242.149 239.967 243.363 239.967C244.577 239.967 244.82 239.316 244.82 238.513C244.82 237.71 244.335 237.058 243.363 237.058C242.391 237.058 241.906 237.71 241.906 238.513Z" fill="white"/>
<path d="M224.952 246.794C224.656 246.365 224.07 246.257 223.641 246.553C223.213 246.848 223.105 247.434 223.4 247.863L224.952 246.794ZM230.356 245.646L231.246 245.339C231.116 244.959 230.758 244.704 230.356 244.704C229.954 244.704 229.596 244.959 229.465 245.339L230.356 245.646ZM237.312 247.863C237.607 247.434 237.499 246.848 237.07 246.553C236.642 246.257 236.055 246.365 235.76 246.794L237.312 247.863ZM223.4 247.863C223.661 248.241 224.134 248.748 224.767 249.166C225.407 249.588 226.261 249.952 227.266 249.952V248.068C226.725 248.068 226.228 247.872 225.805 247.593C225.377 247.311 225.077 246.976 224.952 246.794L223.4 247.863ZM227.266 249.952C228.502 249.952 229.422 249.075 229.996 248.318C230.602 247.519 231.03 246.583 231.246 245.953L229.465 245.339C229.296 245.831 228.951 246.577 228.495 247.18C228.006 247.824 227.575 248.068 227.266 248.068V249.952ZM229.465 245.953C229.682 246.583 230.11 247.519 230.715 248.318C231.29 249.075 232.21 249.952 233.446 249.952V248.068C233.137 248.068 232.705 247.824 232.217 247.18C231.76 246.577 231.416 245.831 231.246 245.339L229.465 245.953ZM233.446 249.952C234.45 249.952 235.304 249.588 235.944 249.166C236.578 248.748 237.051 248.241 237.312 247.863L235.76 246.794C235.634 246.976 235.335 247.311 234.907 247.593C234.484 247.872 233.986 248.068 233.446 248.068V249.952Z" fill="#222327"/>
<path d="M235.496 244.782C235.496 245.561 231.964 246.554 230.778 246.865C230.526 246.932 230.265 246.932 230.013 246.865C228.827 246.554 225.295 245.561 225.295 244.782C225.295 243.844 228.115 242.842 230.396 242.842C232.676 242.842 235.496 243.844 235.496 244.782Z" fill="#222327"/>
<path d="M229.788 219.854C215.614 219.854 210.405 214.901 209.562 212.004L216.304 204.715L230.912 202.192L251.137 212.004C249.92 214.341 243.978 219.854 229.788 219.854Z" fill="#222327"/>
<path fill-rule="evenodd" clip-rule="evenodd" d="M231.748 272.841C261.038 272.841 282.511 264.63 282.511 242.541C282.511 214.907 261.038 194.06 231.748 194.06C202.458 194.06 181.471 216.846 181.471 242.541C181.471 264.63 202.458 272.841 231.748 272.841ZM230.597 264.358C252.143 264.358 267.937 258.345 267.937 242.169C267.937 221.932 252.143 206.666 230.597 206.666C209.052 206.666 193.614 223.353 193.614 242.169C193.614 258.345 209.052 264.358 230.597 264.358Z" fill="white"/>
<path d="M423.532 212.948H435.053V226.39H423.532V253.656H406.25V236.759C393.961 239.255 381.767 240.599 364.005 240.599H343.843V227.446H351.524V200.179H345.764V187.217H398.761V200.179H393V226.005C397.705 225.429 402.121 224.757 406.25 223.989V186.257H423.532V212.948ZM353.348 276.507V247.992H371.014V263.161H425.452V276.507H353.348ZM368.806 227.446C371.206 227.35 373.51 227.35 375.719 227.254V200.179H368.806V227.446ZM531.063 219.669V233.11H519.542V276.507H502.26V261.433C489.971 264.986 477.777 267.002 460.015 267.002H442.734V189.138H491.891V202.099H460.015V253.848C477.585 253.848 490.067 252.12 502.26 248.664V186.257H519.542V219.669H531.063ZM627.073 219.669V233.11H615.552V276.507H598.27V186.257H615.552V219.669H627.073ZM538.744 267.002V189.138H588.957V267.002H538.744ZM556.025 253.848H571.867V202.291H556.025V253.848ZM700.52 186.257H717.322V238.295H700.52V186.257ZM628.993 228.022C640.226 225.717 648.675 222.165 653.38 217.653L634.754 218.805V206.323H657.412V200.179H636.674V187.217H674.214V204.499H679.686V186.737H696.008V238.295H679.686V217.941H671.717C666.629 227.83 653.86 235.991 634.466 240.887L628.993 228.022ZM639.458 262.777C663.173 261.913 670.085 257.017 670.085 248.664V241.367H687.367V250.2C687.367 252.504 687.079 254.712 686.503 256.729C697.64 257.497 708.681 259.033 717.322 261.049L712.714 276.507C702.825 273.05 688.999 269.69 677.862 267.866C669.893 273.242 657.124 275.835 641.282 276.507L639.458 262.777Z" fill="#3692FF"/>
</svg>
