<svg width="996" height="447" viewBox="0 0 996 447" fill="none" xmlns="http://www.w3.org/2000/svg">
<g clip-path="url(#clip0_293_19020)">
<rect x="109.519" y="143.069" width="124" height="228" rx="8" transform="rotate(-14.5652 109.519 143.069)" fill="#FFE7D1"/>
<path d="M249.706 221.33C248.595 217.053 251.16 212.686 255.437 211.575L309.637 197.492C313.913 196.381 318.281 198.947 319.392 203.223L348.815 316.463L279.129 334.57L249.706 221.33Z" fill="#FFE7D1"/>
<path d="M62.756 253.374C61.6449 249.097 64.2108 244.73 68.4871 243.619L131.398 227.273C135.674 226.162 140.042 228.728 141.153 233.004L174.6 361.729L96.203 382.099L62.756 253.374Z" fill="#FFE7D1"/>
<rect x="135.842" y="156.893" width="20" height="23" rx="4" transform="rotate(-14.5652 135.842 156.893)" fill="#F5C498"/>
<rect x="164.878" y="149.349" width="20" height="23" rx="4" transform="rotate(-14.5652 164.878 149.349)" fill="#F5C498"/>
<rect x="193.914" y="141.805" width="20" height="23" rx="4" transform="rotate(-14.5652 193.914 141.805)" fill="#F5C498"/>
<rect x="144.644" y="190.769" width="20" height="23" rx="4" transform="rotate(-14.5652 144.644 190.769)" fill="#F5C498"/>
<rect x="173.68" y="183.224" width="20" height="23" rx="4" transform="rotate(-14.5652 173.68 183.224)" fill="#F5C498"/>
<rect x="79.2799" y="255.473" width="20" height="23" rx="4" transform="rotate(-14.5652 79.2799 255.473)" fill="#F5C498"/>
<rect x="108.316" y="247.929" width="20" height="23" rx="4" transform="rotate(-14.5652 108.316 247.929)" fill="#F5C498"/>
<rect x="262.113" y="225.339" width="20" height="23" rx="4" transform="rotate(-14.5652 262.113 225.339)" fill="#F5C498"/>
<rect x="291.148" y="217.794" width="20" height="23" rx="4" transform="rotate(-14.5652 291.148 217.794)" fill="#F5C498"/>
<rect x="202.715" y="175.68" width="20" height="23" rx="4" transform="rotate(-14.5652 202.715 175.68)" fill="#F5C498"/>
<ellipse cx="499" cy="465" rx="499" ry="176" fill="#D7A37E"/>
<ellipse cx="499" cy="465" rx="499" ry="176" fill="url(#paint0_linear_293_19020)"/>
<path d="M422.467 210.691C426.094 230.897 449.884 233.358 461.973 232.711L489.822 272.217C489.39 276.534 474.74 295.143 420.857 275.455C359.331 252.974 368.775 198.664 385.552 191.262C407.572 181.547 417.934 185.433 422.467 210.691Z" fill="#222327"/>
<path d="M624.976 170.977C624.976 222.006 575.471 240.974 507.942 240.974C440.414 240.974 392.028 222.006 392.028 170.977C392.028 111.621 440.414 58.9834 507.942 58.9834C575.471 58.9834 624.976 107.141 624.976 170.977Z" fill="white"/>
<path d="M446.43 300.31C446.43 278.563 454.312 245.751 461.326 232.063H559.119C565.926 244.208 572.553 274.862 572.058 300.31C571.44 332.12 538.64 334.433 508.316 335.59C477.992 336.746 446.43 327.493 446.43 300.31Z" fill="white"/>
<path d="M458.486 341.917C452.259 330.504 446.43 324.027 446.43 296.179L487.794 308.146C494.319 308.04 507.721 310.4 509.128 320.692C510.886 333.557 504.991 349.48 502.167 351.381C499.908 352.901 492.115 352.565 488.501 352.208L474.626 349.588C469.541 351.914 464.109 352.222 458.486 341.917Z" fill="white"/>
<path d="M559.916 341.917C566.143 330.504 571.971 324.027 571.971 296.179L530.607 308.146C524.082 308.04 510.68 310.4 509.273 320.692C507.515 333.557 513.41 349.48 516.234 351.381C518.494 352.901 526.286 352.565 529.901 352.208L543.775 349.588C548.86 351.914 554.293 352.222 559.916 341.917Z" fill="white"/>
<path d="M461.658 237.244L457.772 236.596L454.534 245.016L455.181 249.549L461.658 237.244Z" fill="#222327"/>
<path d="M503.422 350.472C503.422 356.269 498.32 359 482.439 359C466.558 359 456.792 356.925 456.792 351.128C456.792 345.331 457.829 338.923 479.46 338.923C495.341 338.923 503.422 344.675 503.422 350.472Z" fill="white"/>
<path d="M516.375 350.472C516.375 356.269 521.477 359 537.358 359C553.239 359 563.005 356.925 563.005 351.128C563.005 345.331 561.969 338.923 540.338 338.923C524.457 338.923 516.375 344.675 516.375 350.472Z" fill="white"/>
<rect x="538.964" y="240.677" width="46.6299" height="59.4172" rx="23.315" transform="rotate(-21.5019 538.964 240.677)" fill="#222327"/>
<path d="M504.693 61.4017C509.004 76.2516 497.604 92.6148 484.536 96.409C471.468 100.203 453.615 92.3338 449.303 77.484C444.992 62.6341 454.043 42.0586 467.111 38.2644C484.536 33.205 500.381 46.5518 504.693 61.4017Z" fill="#222327"/>
<path d="M511.876 61.4018C507.564 76.2517 518.965 92.6149 532.033 96.4091C545.101 100.203 562.954 92.334 567.265 77.4841C571.577 62.6342 562.526 42.0587 549.458 38.2645C532.033 33.2051 516.188 46.552 511.876 61.4018Z" fill="#222327"/>
<path d="M591.378 170.116C591.378 207.485 554.963 221.375 505.29 221.375C455.618 221.375 420.027 207.485 420.027 170.116C420.027 126.649 455.618 88.1019 505.29 88.1019C554.963 88.1019 591.378 123.368 591.378 170.116Z" fill="#F3D6DD"/>
<path d="M488.173 162.431C488.173 174.801 480.206 188.372 469.072 188.372C457.939 188.372 439.954 178.293 439.954 159.813C439.954 142.454 459.383 136.281 479.46 139.451C491.765 141.394 488.173 150.06 488.173 162.431Z" fill="#222327"/>
<path d="M478.858 161.181C478.858 163.036 478.298 164.541 475.498 164.541C472.698 164.541 472.138 163.036 472.138 161.181C472.138 159.325 473.258 157.821 475.498 157.821C477.738 157.821 478.858 159.325 478.858 161.181Z" fill="white"/>
<path d="M522.044 162.431C522.044 174.801 530.011 188.372 541.144 188.372C552.278 188.372 570.263 178.293 570.263 159.813C570.263 142.454 550.834 136.281 530.757 139.451C518.452 141.394 522.044 150.06 522.044 162.431Z" fill="#222327"/>
<path d="M531.359 161.181C531.359 163.036 531.919 164.541 534.719 164.541C537.519 164.541 538.078 163.036 538.078 161.181C538.078 159.325 536.959 157.821 534.719 157.821C532.479 157.821 531.359 159.325 531.359 161.181Z" fill="white"/>
<path d="M492.07 180.446C491.462 179.562 490.253 179.338 489.369 179.946C488.484 180.554 488.26 181.764 488.868 182.648L492.07 180.446ZM504.717 177.661L506.555 177.03C506.285 176.245 505.547 175.718 504.717 175.718C503.888 175.718 503.15 176.245 502.88 177.03L504.717 177.661ZM520.566 182.648C521.174 181.764 520.95 180.554 520.066 179.946C519.182 179.338 517.972 179.562 517.364 180.446L520.566 182.648ZM488.868 182.648C489.452 183.498 490.522 184.647 491.958 185.596C493.406 186.554 495.333 187.376 497.593 187.376V183.49C496.292 183.49 495.101 183.016 494.101 182.355C493.089 181.686 492.377 180.892 492.07 180.446L488.868 182.648ZM497.593 187.376C500.331 187.376 502.395 185.426 503.707 183.69C505.084 181.869 506.061 179.73 506.555 178.293L502.88 177.03C502.484 178.183 501.679 179.93 500.608 181.347C499.471 182.85 498.417 183.49 497.593 183.49V187.376ZM502.88 178.293C503.374 179.73 504.35 181.869 505.728 183.69C507.04 185.426 509.103 187.376 511.841 187.376V183.49C511.018 183.49 509.964 182.85 508.827 181.347C507.756 179.93 506.951 178.183 506.555 177.03L502.88 178.293ZM511.841 187.376C514.102 187.376 516.028 186.554 517.477 185.596C518.913 184.647 519.982 183.498 520.566 182.648L517.364 180.446C517.058 180.892 516.346 181.686 515.334 182.355C514.333 183.016 513.143 183.49 511.841 183.49V187.376Z" fill="#222327"/>
<path d="M516.579 175.665C516.579 177.486 508.255 179.81 505.614 180.502C505.091 180.638 504.547 180.638 504.025 180.502C501.384 179.81 493.06 177.486 493.06 175.665C493.06 173.5 499.562 171.185 504.819 171.185C510.077 171.185 516.579 173.5 516.579 175.665Z" fill="#222327"/>
<path d="M503.422 118.079C470.744 118.079 458.735 106.637 456.792 99.9448L472.336 83.1062L506.013 77.2775L552.643 99.9448C549.836 105.342 536.136 118.079 503.422 118.079Z" fill="#222327"/>
<path fill-rule="evenodd" clip-rule="evenodd" d="M507.942 241.134C575.471 241.134 624.976 222.166 624.976 171.138C624.976 107.301 575.471 59.1437 507.942 59.1437C440.414 59.1437 392.029 111.781 392.029 171.138C392.029 222.166 440.414 241.134 507.942 241.134ZM505.291 221.535C554.963 221.535 591.378 207.645 591.378 170.276C591.378 123.528 554.963 88.262 505.291 88.262C455.618 88.262 420.027 126.809 420.027 170.276C420.027 207.645 455.618 221.535 505.291 221.535Z" fill="white"/>
<path fill-rule="evenodd" clip-rule="evenodd" d="M560.827 237.244C545.174 240.669 527.299 242.228 507.942 242.228C490.259 242.228 473.888 240.927 459.356 238.09C452.916 253.494 446.43 282.325 446.43 302.051C446.43 329.234 477.992 338.488 508.316 337.331C538.64 336.174 571.44 333.861 572.059 302.051C572.512 278.741 566.99 251.065 560.827 237.244Z" fill="white"/>
<path fill-rule="evenodd" clip-rule="evenodd" d="M446.43 295.578C459.704 300.336 480.067 304.175 509.116 303.303C534.192 302.551 555.424 299.442 571.933 295.798C571.6 273.635 566.423 248.801 560.692 235.949C545.039 239.374 527.164 240.932 507.807 240.932C490.124 240.932 473.753 239.632 459.22 236.795C453.324 250.898 447.39 276.257 446.43 295.578Z" fill="#222327"/>
<path d="M535.804 273.512C538.772 246.844 552.322 239.307 565.059 235.638C570.24 234.145 578.659 234.342 583.193 236.285C588.681 238.637 594.85 243.409 599.384 254.419C603.917 265.429 609.635 281.931 612.225 298.77L612.26 298.994C614.852 315.838 618.804 341.514 567.223 341.514C524.725 341.514 533.102 297.786 535.804 273.512Z" fill="#3786E2"/>
<path d="M556.208 289.664C544.939 283.434 540.855 269.248 547.085 257.979L549.488 253.632C554.697 244.211 565.678 239.581 576.06 242.428L580.302 243.592C594.735 247.551 601.753 263.892 594.686 277.085L591.706 282.648C585.476 293.917 571.29 298.002 560.021 291.772L556.208 289.664Z" fill="#222327"/>
<path d="M454.534 256.673C452.461 259.264 449.569 275.886 448.058 283.226C447.41 283.226 443.524 282.147 442.876 281.931C442.229 274.159 448.058 256.673 454.534 256.673Z" fill="#1A1A1C"/>
<rect x="487.563" y="247.606" width="6.47638" height="19.4291" rx="3.23819" fill="white"/>
<path fill-rule="evenodd" clip-rule="evenodd" d="M487.563 263.15V263.797C487.563 265.586 489.013 267.035 490.802 267.035C492.59 267.035 494.04 265.586 494.04 263.797V263.15H487.563Z" fill="#256FC5"/>
<rect x="519.945" y="247.606" width="6.47638" height="19.4291" rx="3.23819" fill="white"/>
<path fill-rule="evenodd" clip-rule="evenodd" d="M519.945 263.15V263.797C519.945 265.586 521.395 267.035 523.183 267.035C524.972 267.035 526.421 265.586 526.421 263.797V263.15H519.945Z" fill="#256FC5"/>
<path d="M508.288 339.571C506.345 354.466 501.164 357.057 495.983 357.705L497.925 345.4C500.516 341.945 509.293 331.864 508.288 339.571Z" fill="white"/>
<path d="M509.663 339.814C511.606 354.709 517.355 358.676 529.012 358.676L520.025 345.643C517.434 342.189 508.658 332.107 509.663 339.814Z" fill="white"/>
<path fill-rule="evenodd" clip-rule="evenodd" d="M586.471 310.466C588.044 312.26 588.94 314.658 589.164 317.494C589.601 323.011 584.375 325.488 577.025 326.069C569.675 326.65 564.247 325.015 563.811 319.498C563.606 316.904 564.078 314.469 565.279 312.444C565.037 312.169 564.839 311.851 564.705 311.495C564.02 309.684 564.947 307.025 566.541 306.422C568.251 305.776 569.95 306.626 570.907 307.925C572.244 307.429 573.778 307.096 575.514 306.959C577.203 306.826 578.735 306.885 580.11 307.121C580.776 305.539 582.413 304.238 584.332 304.635C586.001 304.98 587.335 307.46 586.943 309.356C586.859 309.763 586.694 310.135 586.471 310.466Z" fill="#2D68AE"/>
<path d="M574.594 316.981C574.72 318.582 573.869 320.416 572.485 320.526C571.101 320.635 568.762 319.508 568.573 317.117C568.395 314.871 570.747 313.881 573.275 314.094C574.825 314.224 574.467 315.381 574.594 316.981Z" fill="#3475C2"/>
<path d="M571.986 316.948C572.011 317.261 572.126 317.508 572.599 317.47C573.072 317.433 573.146 317.171 573.122 316.858C573.097 316.544 572.888 316.305 572.509 316.335C572.131 316.365 571.962 316.634 571.986 316.948Z" fill="white"/>
<path d="M578.121 316.703C578.247 318.303 579.377 319.981 580.761 319.871C582.145 319.762 584.277 318.281 584.088 315.89C583.911 313.644 581.432 313.036 578.969 313.644C577.459 314.016 577.994 315.102 578.121 316.703Z" fill="#3475C2"/>
<path d="M580.69 316.26C580.715 316.573 580.641 316.835 580.168 316.872C579.695 316.909 579.58 316.663 579.555 316.349C579.53 316.036 579.7 315.767 580.078 315.737C580.456 315.707 580.666 315.946 580.69 316.26Z" fill="white"/>
<rect x="705.732" y="255.396" width="29" height="53" rx="6" transform="rotate(10 705.732 255.396)" fill="#DC9759"/>
<circle cx="723.804" cy="239.289" r="46" transform="rotate(10 723.804 239.289)" fill="#54B858"/>
<circle cx="723.804" cy="239.289" r="46" transform="rotate(10 723.804 239.289)" fill="url(#paint1_linear_293_19020)"/>
<rect x="824.258" y="284.683" width="29" height="53" rx="6" transform="rotate(20 824.258 284.683)" fill="#DC9759"/>
<circle cx="844.851" cy="271.959" r="46" transform="rotate(20 844.851 271.959)" fill="#54B858"/>
<circle cx="844.851" cy="271.959" r="46" transform="rotate(20 844.851 271.959)" fill="url(#paint2_linear_293_19020)"/>
</g>
<defs>
<linearGradient id="paint0_linear_293_19020" x1="499" y1="289" x2="499" y2="641" gradientUnits="userSpaceOnUse">
<stop stop-color="#E18745"/>
<stop offset="1" stop-color="#D7A37E" stop-opacity="0"/>
</linearGradient>
<linearGradient id="paint1_linear_293_19020" x1="723.804" y1="193.289" x2="723.804" y2="285.289" gradientUnits="userSpaceOnUse">
<stop stop-color="#32A737"/>
<stop offset="1" stop-color="#54B858" stop-opacity="0"/>
</linearGradient>
<linearGradient id="paint2_linear_293_19020" x1="844.851" y1="225.959" x2="844.851" y2="317.959" gradientUnits="userSpaceOnUse">
<stop stop-color="#32A737"/>
<stop offset="1" stop-color="#54B858" stop-opacity="0"/>
</linearGradient>
<clipPath id="clip0_293_19020">
<rect width="996" height="447" fill="white"/>
</clipPath>
</defs>
</svg>
