<svg width="103" height="35" viewBox="0 0 103 35" fill="none" xmlns="http://www.w3.org/2000/svg">
<path d="M22.3008 12.3885H25.3767V15.9772H22.3008V23.257H17.6868V18.7455C14.4058 19.412 11.1504 19.7709 6.40827 19.7709H1.02532V16.2591H3.07597V8.97933H1.53798V5.51887H15.6874V8.97933H14.1495V15.8746C15.4055 15.7208 16.5846 15.5414 17.6868 15.3363V5.26254H22.3008V12.3885ZM3.563 29.3576V21.7446H8.27948V25.7946H22.8134V29.3576H3.563ZM7.68992 16.2591C8.33075 16.2335 8.94594 16.2335 9.5355 16.2079V8.97933H7.68992V16.2591ZM51.0098 14.1828V17.7715H47.9338V29.3576H43.3199V25.3332C40.0389 26.2817 36.7835 26.8199 32.0413 26.8199H27.4274V6.03153H40.5515V9.49199H32.0413V23.3082C36.7322 23.3082 40.0645 22.8468 43.3199 21.924V5.26254H47.9338V14.1828H51.0098ZM76.6429 14.1828V17.7715H73.5669V29.3576H68.9529V5.26254H73.5669V14.1828H76.6429ZM53.0604 26.8199V6.03153H66.4665V26.8199H53.0604ZM57.6744 23.3082H61.9039V9.54326H57.6744V23.3082ZM96.2522 5.26254H100.738V19.1557H96.2522V5.26254ZM77.1555 16.4129C80.1546 15.7977 82.4103 14.8493 83.6663 13.6446L78.6935 13.9521V10.6198H84.7429V8.97933H79.2062V5.51887H89.2287V10.1328H90.6898V5.3907H95.0474V19.1557H90.6898V13.7215H88.5622C87.2037 16.3617 83.7945 18.5405 78.6166 19.8478L77.1555 16.4129ZM79.9495 25.6921C86.2809 25.4614 88.1265 24.1541 88.1265 21.924V19.9759H92.7404V22.3342C92.7404 22.9494 92.6635 23.5389 92.5097 24.0772C95.4832 24.2823 98.431 24.6924 100.738 25.2307L99.5076 29.3576C96.8674 28.4348 93.1762 27.5377 90.2028 27.0506C88.0752 28.4861 84.666 29.1782 80.4366 29.3576L79.9495 25.6921Z" fill="#3692FF"/>
</svg>
