<svg width="40" height="41" viewBox="0 0 40 41" fill="none" xmlns="http://www.w3.org/2000/svg">
<rect y="0.0168457" width="40" height="40.1354" rx="11.1782" fill="#3692FF"/>
<path d="M19.3143 11.1911C19.8136 12.9166 18.4934 14.8179 16.9801 15.2588C15.4668 15.6996 13.3994 14.7852 12.9001 13.0598C12.4008 11.3343 13.4489 8.94351 14.9622 8.50264C16.9801 7.91476 18.815 9.4656 19.3143 11.1911Z" fill="#222327"/>
<path d="M20.1466 11.1911C19.6473 12.9166 20.9675 14.8179 22.4808 15.2588C23.9941 15.6996 26.0616 14.7852 26.5609 13.0598C27.0602 11.3343 26.012 8.94351 24.4987 8.50264C22.4808 7.91476 20.6459 9.4656 20.1466 11.1911Z" fill="#222327"/>
<path d="M29.5167 23.7967C29.5167 28.1855 25.2133 29.8169 19.3432 29.8169C13.4731 29.8169 9.26709 28.1855 9.26709 23.7967C9.26709 18.6916 13.4731 14.1644 19.3432 14.1644C25.2133 14.1644 29.5167 18.3063 29.5167 23.7967Z" fill="#F3D6DD"/>
<path d="M17.4003 22.9301C17.4003 24.3675 16.4777 25.9444 15.1884 25.9444C13.8991 25.9444 11.8164 24.7732 11.8164 22.626C11.8164 20.609 14.0664 19.8916 16.3913 20.2599C17.8163 20.4857 17.4003 21.4927 17.4003 22.9301Z" fill="#222327"/>
<path d="M16.3221 22.785C16.3221 23.0007 16.2573 23.1754 15.933 23.1754C15.6088 23.1754 15.5439 23.0007 15.5439 22.785C15.5439 22.5694 15.6736 22.3947 15.933 22.3947C16.1924 22.3947 16.3221 22.5694 16.3221 22.785Z" fill="white"/>
<path d="M21.3223 22.9302C21.3223 24.3676 22.2449 25.9445 23.5342 25.9445C24.8235 25.9445 26.9062 24.7733 26.9062 22.6261C26.9062 20.6091 24.6563 19.8917 22.3313 20.2601C20.9064 20.4858 21.3223 21.4928 21.3223 22.9302Z" fill="#222327"/>
<path d="M22.4015 22.785C22.4015 23.0007 22.4664 23.1754 22.7906 23.1754C23.1148 23.1754 23.1797 23.0007 23.1797 22.785C23.1797 22.5694 23.05 22.3947 22.7906 22.3947C22.5312 22.3947 22.4015 22.5694 22.4015 22.785Z" fill="white"/>
<path d="M17.875 25.0092C17.7964 24.8946 17.6399 24.8654 17.5253 24.9439C17.4107 25.0224 17.3815 25.1789 17.46 25.2935L17.875 25.0092ZM19.3174 24.6998L19.5554 24.6183C19.5205 24.5166 19.4249 24.4483 19.3174 24.4483C19.21 24.4483 19.1144 24.5166 19.0795 24.6183L19.3174 24.6998ZM21.1749 25.2935C21.2534 25.1789 21.2242 25.0224 21.1096 24.9439C20.995 24.8654 20.8385 24.8946 20.7599 25.0092L21.1749 25.2935ZM17.46 25.2935C17.5295 25.3949 17.6557 25.5308 17.8249 25.6431C17.9957 25.7564 18.2239 25.8544 18.4925 25.8544V25.3514C18.3485 25.3514 18.2158 25.2988 18.103 25.224C17.9886 25.1481 17.9086 25.0583 17.875 25.0092L17.46 25.2935ZM18.4925 25.8544C18.823 25.8544 19.0688 25.6186 19.2218 25.4156C19.3834 25.2013 19.4975 24.9502 19.5554 24.7813L19.0795 24.6183C19.0342 24.7505 18.9422 24.9509 18.8201 25.1128C18.6895 25.2861 18.5744 25.3514 18.4925 25.3514V25.8544ZM19.0795 24.7813C19.1374 24.9502 19.2515 25.2013 19.4131 25.4156C19.5661 25.6186 19.8119 25.8544 20.1424 25.8544V25.3514C20.0605 25.3514 19.9454 25.2861 19.8148 25.1128C19.6927 24.9509 19.6006 24.7505 19.5554 24.6183L19.0795 24.7813ZM20.1424 25.8544C20.411 25.8544 20.6392 25.7564 20.81 25.6431C20.9792 25.5308 21.1054 25.3949 21.1749 25.2935L20.7599 25.0092C20.7263 25.0583 20.6463 25.1481 20.5319 25.224C20.4191 25.2988 20.2863 25.3514 20.1424 25.3514V25.8544Z" fill="#222327"/>
<path d="M20.6903 24.4678C20.6903 24.677 19.7483 24.9433 19.4313 25.027C19.3635 25.0449 19.2936 25.0449 19.2259 25.027C18.9088 24.9433 17.9668 24.677 17.9668 24.4678C17.9668 24.2162 18.7197 23.9473 19.3286 23.9473C19.9374 23.9473 20.6903 24.2162 20.6903 24.4678Z" fill="#222327"/>
<path d="M19.166 17.7768C15.3818 17.7768 13.9911 16.4473 13.7661 15.6697L15.5661 13.7132L19.466 13.0359L24.8659 15.6697C24.5409 16.2968 22.9544 17.7768 19.166 17.7768Z" fill="#222327"/>
<path fill-rule="evenodd" clip-rule="evenodd" d="M19.6898 31.9995C27.5098 31.9995 33.2427 29.7956 33.2427 23.8663C33.2427 16.4488 27.5098 10.8531 19.6898 10.8531C11.8698 10.8531 6.2666 16.9693 6.2666 23.8663C6.2666 29.7956 11.8698 31.9995 19.6898 31.9995ZM19.3823 29.7225C25.1345 29.7225 29.3515 28.1085 29.3515 23.7664C29.3515 18.3345 25.1345 14.2368 19.3823 14.2368C13.6301 14.2368 9.50854 18.7157 9.50854 23.7664C9.50854 28.1085 13.6301 29.7225 19.3823 29.7225Z" fill="white"/>
</svg>
