<svg width="103" height="51" viewBox="0 0 103 51" fill="none" xmlns="http://www.w3.org/2000/svg">
<path d="M22.3008 20.3885H25.3767V23.9772H22.3008V31.257H17.6868V26.7455C14.4058 27.412 11.1504 27.7709 6.40827 27.7709H1.02532V24.2591H3.07597V16.9793H1.53798V13.5189H15.6874V16.9793H14.1495V23.8746C15.4055 23.7208 16.5846 23.5414 17.6868 23.3363V13.2625H22.3008V20.3885ZM3.563 37.3576V29.7446H8.27948V33.7946H22.8134V37.3576H3.563ZM7.68992 24.2591C8.33075 24.2335 8.94594 24.2335 9.5355 24.2079V16.9793H7.68992V24.2591ZM51.0098 22.1828V25.7715H47.9338V37.3576H43.3199V33.3332C40.0389 34.2817 36.7835 34.8199 32.0413 34.8199H27.4274V14.0315H40.5515V17.492H32.0413V31.3082C36.7322 31.3082 40.0645 30.8468 43.3199 29.924V13.2625H47.9338V22.1828H51.0098ZM76.6429 22.1828V25.7715H73.5669V37.3576H68.9529V13.2625H73.5669V22.1828H76.6429ZM53.0604 34.8199V14.0315H66.4665V34.8199H53.0604ZM57.6744 31.3082H61.9039V17.5433H57.6744V31.3082ZM96.2522 13.2625H100.738V27.1557H96.2522V13.2625ZM77.1555 24.4129C80.1546 23.7977 82.4103 22.8493 83.6663 21.6446L78.6935 21.9521V18.6198H84.7429V16.9793H79.2062V13.5189H89.2287V18.1328H90.6898V13.3907H95.0474V27.1557H90.6898V21.7215H88.5622C87.2037 24.3617 83.7945 26.5405 78.6166 27.8478L77.1555 24.4129ZM79.9495 33.6921C86.2809 33.4614 88.1265 32.1541 88.1265 29.924V27.9759H92.7404V30.3342C92.7404 30.9494 92.6635 31.5389 92.5097 32.0772C95.4832 32.2823 98.431 32.6924 100.738 33.2307L99.5076 37.3576C96.8674 36.4348 93.1762 35.5377 90.2028 35.0506C88.0752 36.4861 84.666 37.1782 80.4366 37.3576L79.9495 33.6921Z" fill="#3692FF"/>
</svg>
