<svg width="104" height="105" viewBox="0 0 104 105" fill="none" xmlns="http://www.w3.org/2000/svg">
    <rect y="0.984375" width="103.529" height="103.88" rx="28.9317" fill="#3692FF"/>
    <path d="M49.9902 29.9056C51.2825 34.3715 47.8655 39.2926 43.9487 40.4337C40.0319 41.5748 34.6808 39.2081 33.3885 34.7422C32.0962 30.2762 34.8091 24.0883 38.7259 22.9473C43.9487 21.4257 48.6978 25.4396 49.9902 29.9056Z" fill="#222327"/>
    <path d="M52.1441 29.9056C50.8518 34.3715 54.2688 39.2926 58.1856 40.4337C62.1024 41.5748 67.4535 39.2081 68.7458 34.7422C70.0381 30.2762 67.3252 24.0883 63.4084 22.9473C58.1856 21.4257 53.4364 25.4396 52.1441 29.9056Z" fill="#222327"/>
    <path d="M76.3961 62.5317C76.3961 73.891 65.2579 78.1134 50.0647 78.1134C34.8715 78.1134 23.9854 73.891 23.9854 62.5317C23.9854 49.3185 34.8715 37.6011 50.0647 37.6011C65.2579 37.6011 76.3961 48.3213 76.3961 62.5317Z" fill="#F3D6DD"/>
    <path d="M45.036 60.2892C45.036 64.0095 42.648 68.0907 39.311 68.0907C35.9741 68.0907 30.5835 65.0594 30.5835 59.502C30.5835 54.2815 36.4069 52.4248 42.4244 53.3781C46.1126 53.9624 45.036 56.5688 45.036 60.2892Z" fill="#222327"/>
    <path d="M42.2455 59.9138C42.2455 60.4718 42.0777 60.9242 41.2385 60.9242C40.3993 60.9242 40.2314 60.4718 40.2314 59.9138C40.2314 59.3557 40.5671 58.9033 41.2385 58.9033C41.9098 58.9033 42.2455 59.3557 42.2455 59.9138Z" fill="white"/>
    <path d="M55.1872 60.2892C55.1872 64.0095 57.5751 68.0907 60.9121 68.0907C64.2491 68.0907 69.6396 65.0594 69.6396 59.502C69.6396 54.2815 63.8162 52.4248 57.7987 53.3781C54.1105 53.9624 55.1872 56.5688 55.1872 60.2892Z" fill="#222327"/>
    <path d="M57.9806 59.9142C57.9806 60.4723 58.1484 60.9247 58.9876 60.9247C59.8268 60.9247 59.9946 60.4723 59.9946 59.9142C59.9946 59.3562 59.659 58.9038 58.9876 58.9038C58.3163 58.9038 57.9806 59.3562 57.9806 59.9142Z" fill="white"/>
    <path d="M46.2645 65.6693C46.0613 65.3728 45.6562 65.2971 45.3596 65.5003C45.063 65.7035 44.9873 66.1086 45.1905 66.4052L46.2645 65.6693ZM49.998 64.8687L50.6139 64.6577C50.5237 64.3945 50.2762 64.2177 49.998 64.2177C49.7198 64.2177 49.4724 64.3945 49.3822 64.6577L49.998 64.8687ZM54.8055 66.4052C55.0087 66.1086 54.9331 65.7035 54.6365 65.5003C54.3399 65.2971 53.9348 65.3728 53.7316 65.6693L54.8055 66.4052ZM45.1905 66.4052C45.3704 66.6677 45.697 67.0195 46.135 67.3101C46.5771 67.6034 47.1677 67.8569 47.8628 67.8569V66.555C47.4903 66.555 47.1467 66.4189 46.8547 66.2252C46.5588 66.0289 46.3516 65.7964 46.2645 65.6693L45.1905 66.4052ZM47.8628 67.8569C48.7183 67.8569 49.3545 67.2466 49.7505 66.7212C50.1686 66.1665 50.4641 65.5167 50.6139 65.0796L49.3822 64.6577C49.2651 64.9997 49.0267 65.5185 48.7109 65.9376C48.3728 66.3861 48.0749 66.555 47.8628 66.555V67.8569ZM49.3822 65.0796C49.532 65.5167 49.8274 66.1665 50.2456 66.7212C50.6416 67.2466 51.2778 67.8569 52.1333 67.8569V66.555C51.9211 66.555 51.6232 66.3861 51.2852 65.9376C50.9694 65.5185 50.731 64.9997 50.6139 64.6577L49.3822 65.0796ZM52.1333 67.8569C52.8284 67.8569 53.419 67.6034 53.861 67.3101C54.2991 67.0195 54.6257 66.6677 54.8055 66.4052L53.7316 65.6693C53.6445 65.7964 53.4373 66.0289 53.1413 66.2252C52.8494 66.4189 52.5058 66.555 52.1333 66.555V67.8569Z" fill="#222327"/>
    <path d="M53.5516 64.2681C53.5516 64.8096 51.1134 65.4989 50.2928 65.7155C50.1175 65.7618 49.9366 65.7618 49.7612 65.7155C48.9406 65.4989 46.5024 64.8096 46.5024 64.2681C46.5024 63.6171 48.4512 62.9209 50.027 62.9209C51.6028 62.9209 53.5516 63.6171 53.5516 64.2681Z" fill="#222327"/>
    <path d="M49.6061 46.9512C39.8117 46.9512 36.2122 43.5103 35.6299 41.4976L40.2886 36.4336L50.3825 34.6807L64.3587 41.4976C63.5176 43.1207 59.4113 46.9512 49.6061 46.9512Z" fill="#222327"/>
    <path fill-rule="evenodd" clip-rule="evenodd" d="M50.9616 83.7631C71.2016 83.7631 86.0397 78.0587 86.0397 62.7124C86.0397 43.5141 71.2016 29.0312 50.9616 29.0312C30.7216 29.0312 16.2192 44.8614 16.2192 62.7124C16.2192 78.0587 30.7216 83.7631 50.9616 83.7631ZM50.1654 77.8699C65.0535 77.8699 75.968 73.6926 75.968 62.4544C75.968 48.3953 65.0535 37.7894 50.1654 37.7894C35.2773 37.7894 24.6097 49.3819 24.6097 62.4544C24.6097 73.6926 35.2773 77.8699 50.1654 77.8699Z" fill="white"/>
</svg>
