<svg width="396" height="132" viewBox="0 0 396 132" fill="none" xmlns="http://www.w3.org/2000/svg">
<rect y="12.9849" width="103.529" height="103.88" rx="28.9317" fill="#3692FF"/>
<path d="M49.9902 41.9061C51.2825 46.372 47.8655 51.2931 43.9487 52.4342C40.0319 53.5753 34.6808 51.2086 33.3885 46.7427C32.0962 42.2767 34.8091 36.0888 38.7259 34.9477C43.9487 33.4262 48.6978 37.4401 49.9902 41.9061Z" fill="#222327"/>
<path d="M52.1441 41.9061C50.8518 46.372 54.2688 51.2931 58.1856 52.4342C62.1024 53.5753 67.4535 51.2086 68.7458 46.7427C70.0381 42.2767 67.3252 36.0888 63.4084 34.9477C58.1856 33.4262 53.4364 37.4401 52.1441 41.9061Z" fill="#222327"/>
<path d="M76.3975 74.5327C76.3975 85.892 65.2594 90.1144 50.0662 90.1144C34.873 90.1144 23.9868 85.892 23.9868 74.5327C23.9868 61.3195 34.873 49.6021 50.0662 49.6021C65.2594 49.6021 76.3975 60.3222 76.3975 74.5327Z" fill="#F3D6DD"/>
<path d="M45.0365 72.2901C45.0365 76.0104 42.6485 80.0917 39.3115 80.0917C35.9745 80.0917 30.584 77.0604 30.584 71.503C30.584 66.2825 36.4074 64.4257 42.4249 65.3791C46.1131 65.9634 45.0365 68.5698 45.0365 72.2901Z" fill="#222327"/>
<path d="M42.245 71.9142C42.245 72.4723 42.0772 72.9247 41.238 72.9247C40.3988 72.9247 40.231 72.4723 40.231 71.9142C40.231 71.3562 40.5666 70.9038 41.238 70.9038C41.9093 70.9038 42.245 71.3562 42.245 71.9142Z" fill="white"/>
<path d="M55.1867 72.2901C55.1867 76.0104 57.5746 80.0917 60.9116 80.0917C64.2486 80.0917 69.6392 77.0604 69.6392 71.503C69.6392 66.2825 63.8157 64.4257 57.7982 65.3791C54.1101 65.9634 55.1867 68.5698 55.1867 72.2901Z" fill="#222327"/>
<path d="M57.9811 71.9142C57.9811 72.4723 58.1489 72.9247 58.9881 72.9247C59.8273 72.9247 59.9951 72.4723 59.9951 71.9142C59.9951 71.3562 59.6594 70.9038 58.9881 70.9038C58.3167 70.9038 57.9811 71.3562 57.9811 71.9142Z" fill="white"/>
<path d="M46.2655 77.6713C46.0623 77.3747 45.6572 77.299 45.3606 77.5022C45.064 77.7054 44.9883 78.1106 45.1915 78.4072L46.2655 77.6713ZM49.999 76.8706L50.6148 76.6596C50.5247 76.3965 50.2772 76.2197 49.999 76.2197C49.7208 76.2197 49.4734 76.3965 49.3832 76.6596L49.999 76.8706ZM54.8065 78.4072C55.0097 78.1106 54.934 77.7054 54.6375 77.5022C54.3409 77.299 53.9357 77.3747 53.7325 77.6713L54.8065 78.4072ZM45.1915 78.4072C45.3714 78.6696 45.698 79.0215 46.136 79.3121C46.5781 79.6053 47.1686 79.8588 47.8638 79.8588V78.5569C47.4913 78.5569 47.1477 78.4209 46.8557 78.2272C46.5598 78.0308 46.3526 77.7984 46.2655 77.6713L45.1915 78.4072ZM47.8638 79.8588C48.7192 79.8588 49.3555 79.2486 49.7515 78.7232C50.1696 78.1684 50.4651 77.5186 50.6148 77.0816L49.3832 76.6596C49.266 77.0016 49.0277 77.5205 48.7118 77.9396C48.3738 78.388 48.0759 78.5569 47.8638 78.5569V79.8588ZM49.3832 77.0816C49.5329 77.5186 49.8284 78.1684 50.2465 78.7232C50.6425 79.2486 51.2788 79.8588 52.1343 79.8588V78.5569C51.9221 78.5569 51.6242 78.388 51.2862 77.9396C50.9703 77.5205 50.732 77.0016 50.6148 76.6596L49.3832 77.0816ZM52.1343 79.8588C52.8294 79.8588 53.42 79.6053 53.862 79.3121C54.3 79.0215 54.6267 78.6696 54.8065 78.4072L53.7325 77.6713C53.6455 77.7984 53.4383 78.0308 53.1423 78.2272C52.8504 78.4209 52.5068 78.5569 52.1343 78.5569V79.8588Z" fill="#222327"/>
<path d="M53.5531 76.2696C53.5531 76.8111 51.1149 77.5003 50.2943 77.717C50.1189 77.7633 49.9381 77.7633 49.7627 77.717C48.9421 77.5003 46.5039 76.8111 46.5039 76.2696C46.5039 75.6186 48.4527 74.9224 50.0285 74.9224C51.6043 74.9224 53.5531 75.6186 53.5531 76.2696Z" fill="#222327"/>
<path d="M49.6071 58.9512C39.8126 58.9512 36.2132 55.5103 35.6309 53.4976L40.2896 48.4336L50.3835 46.6807L64.3597 53.4976C63.5185 55.1207 59.4123 58.9512 49.6071 58.9512Z" fill="#222327"/>
<path fill-rule="evenodd" clip-rule="evenodd" d="M50.9626 95.7636C71.2026 95.7636 86.0406 90.0592 86.0406 74.7129C86.0406 55.5146 71.2026 41.0317 50.9626 41.0317C30.7226 41.0317 16.2202 56.8619 16.2202 74.7129C16.2202 90.0592 30.7226 95.7636 50.9626 95.7636ZM50.1669 89.8698C65.055 89.8698 75.9695 85.6924 75.9695 74.4542C75.9695 60.3952 65.055 49.7893 50.1669 49.7893C35.2788 49.7893 24.6112 61.3818 24.6112 74.4542C24.6112 85.6924 35.2788 89.8698 50.1669 89.8698Z" fill="white"/>
<path d="M183.487 54.3346H191.448V63.6228H183.487V82.4647H171.545V70.788C163.053 72.513 154.627 73.4418 142.353 73.4418H128.421V64.3526H133.728V45.5108H129.748V36.5543H166.37V45.5108H162.389V63.3575C165.64 62.9594 168.692 62.495 171.545 61.9642V35.8909H183.487V54.3346ZM134.989 98.2546V78.5503H147.196V89.0328H184.814V98.2546H134.989ZM145.67 64.3526C147.329 64.2863 148.921 64.2863 150.447 64.2199V45.5108H145.67V64.3526ZM257.792 58.9787V68.267H249.831V98.2546H237.889V87.8386C229.397 90.2933 220.971 91.6865 208.698 91.6865H196.756V37.8812H230.724V46.8377H208.698V82.5973C220.839 82.5973 229.463 81.4031 237.889 79.0147V35.8909H249.831V58.9787H257.792ZM324.137 58.9787V68.267H316.176V98.2546H304.234V35.8909H316.176V58.9787H324.137ZM263.1 91.6865V37.8812H297.798V91.6865H263.1ZM275.042 82.5973H285.989V46.9704H275.042V82.5973ZM374.89 35.8909H386.501V71.8495H374.89V35.8909ZM325.464 64.7507C333.226 63.1584 339.064 60.7037 342.315 57.5855L329.444 58.3816V49.7569H345.102V45.5108H330.771V36.5543H356.712V48.4963H360.494V36.2226H371.772V71.8495H360.494V57.7845H354.987C351.471 64.618 342.647 70.2573 329.245 73.6408L325.464 64.7507ZM332.695 88.7674C349.082 88.1703 353.859 84.7867 353.859 79.0147V73.9726H365.801V80.0763C365.801 81.6685 365.602 83.1944 365.204 84.5877C372.9 85.1184 380.53 86.1799 386.501 87.5732L383.316 98.2546C376.483 95.8662 366.929 93.5442 359.233 92.2836C353.726 95.9989 344.903 97.7902 333.956 98.2546L332.695 88.7674Z" fill="#3692FF"/>
</svg>
