<svg width="20" height="20" viewBox="0 0 20 20" fill="none" xmlns="http://www.w3.org/2000/svg">
<path d="M9.49787 7.51849C7.93707 7.51849 6.66333 8.79222 6.66333 10.353C6.66333 11.9138 7.93707 13.1876 9.49787 13.1876C11.0587 13.1876 12.3324 11.9138 12.3324 10.353C12.3324 8.79222 11.0587 7.51849 9.49787 7.51849ZM17.9994 10.353C17.9994 9.17923 18.01 8.01607 17.9441 6.84441C17.8782 5.48349 17.5677 4.27567 16.5725 3.2805C15.5752 2.2832 14.3695 1.97487 13.0086 1.90895C11.8348 1.84303 10.6717 1.85366 9.5 1.85366C8.32621 1.85366 7.16305 1.84303 5.99138 1.90895C4.63046 1.97487 3.42264 2.28533 2.42747 3.2805C1.43017 4.2778 1.12184 5.48349 1.05592 6.84441C0.99 8.0182 1.00063 9.18136 1.00063 10.353C1.00063 11.5247 0.99 12.69 1.05592 13.8616C1.12184 15.2226 1.4323 16.4304 2.42747 17.4256C3.42477 18.4229 4.63046 18.7312 5.99138 18.7971C7.16517 18.863 8.32833 18.8524 9.5 18.8524C10.6738 18.8524 11.837 18.863 13.0086 18.7971C14.3695 18.7312 15.5774 18.4207 16.5725 17.4256C17.5698 16.4283 17.8782 15.2226 17.9441 13.8616C18.0121 12.69 17.9994 11.5268 17.9994 10.353ZM9.49787 14.7143C7.08437 14.7143 5.13655 12.7665 5.13655 10.353C5.13655 7.93952 7.08437 5.99171 9.49787 5.99171C11.9114 5.99171 13.8592 7.93952 13.8592 10.353C13.8592 12.7665 11.9114 14.7143 9.49787 14.7143ZM14.0378 6.83165C13.4743 6.83165 13.0193 6.37659 13.0193 5.81308C13.0193 5.24958 13.4743 4.79452 14.0378 4.79452C14.6013 4.79452 15.0564 5.24958 15.0564 5.81308C15.0565 5.94689 15.0303 6.07942 14.9792 6.20307C14.9281 6.32672 14.853 6.43908 14.7584 6.53369C14.6638 6.62831 14.5515 6.70333 14.4278 6.75446C14.3041 6.80558 14.1716 6.83182 14.0378 6.83165Z" fill="white"/>
</svg>
