<svg width="28" height="25" viewBox="0 0 28 25" fill="none" xmlns="http://www.w3.org/2000/svg">
<path d="M13.3143 4.19096C13.8136 5.91645 12.4934 7.81777 10.9801 8.25864C9.46684 8.69951 7.39938 7.78512 6.90007 6.05964C6.40077 4.33416 7.44894 1.94339 8.96225 1.50251C10.9801 0.914638 12.815 2.46548 13.3143 4.19096Z" fill="#222327"/>
<path d="M14.1465 4.19096C13.6472 5.91645 14.9674 7.81777 16.4807 8.25864C17.994 8.69951 20.0614 7.78512 20.5607 6.05964C21.06 4.33416 20.0119 1.94339 18.4986 1.50251C16.4807 0.914638 14.6458 2.46548 14.1465 4.19096Z" fill="#222327"/>
<path d="M23.5171 16.7966C23.5171 21.1854 19.2137 22.8168 13.3436 22.8168C7.47348 22.8168 3.26746 21.1854 3.26746 16.7966C3.26746 11.6915 7.47348 7.16431 13.3436 7.16431C19.2137 7.16431 23.5171 11.3062 23.5171 16.7966Z" fill="#F3D6DD"/>
<path d="M11.4004 15.9301C11.4004 17.3675 10.4778 18.9444 9.18854 18.9444C7.89925 18.9444 5.81653 17.7732 5.81653 15.626C5.81653 13.609 8.06648 12.8916 10.3914 13.2599C11.8164 13.4857 11.4004 14.4927 11.4004 15.9301Z" fill="#222327"/>
<path d="M10.322 15.7849C10.322 16.0005 10.2571 16.1753 9.9329 16.1753C9.60867 16.1753 9.54382 16.0005 9.54382 15.7849C9.54382 15.5693 9.67352 15.3945 9.9329 15.3945C10.1923 15.3945 10.322 15.5693 10.322 15.7849Z" fill="white"/>
<path d="M15.3221 15.9301C15.3221 17.3675 16.2447 18.9444 17.534 18.9444C18.8233 18.9444 20.906 17.7732 20.906 15.626C20.906 13.609 18.6561 12.8916 16.3311 13.2599C14.9061 13.4857 15.3221 14.4927 15.3221 15.9301Z" fill="#222327"/>
<path d="M16.4018 15.7849C16.4018 16.0005 16.4666 16.1753 16.7909 16.1753C17.1151 16.1753 17.1799 16.0005 17.1799 15.7849C17.1799 15.5693 17.0502 15.3945 16.7909 15.3945C16.5315 15.3945 16.4018 15.5693 16.4018 15.7849Z" fill="white"/>
<path d="M11.8753 18.0093C11.7968 17.8947 11.6403 17.8655 11.5257 17.944C11.4111 18.0225 11.3819 18.179 11.4604 18.2936L11.8753 18.0093ZM13.3178 17.7L13.5557 17.6184C13.5209 17.5168 13.4253 17.4484 13.3178 17.4484C13.2103 17.4484 13.1147 17.5168 13.0799 17.6184L13.3178 17.7ZM15.1753 18.2936C15.2538 18.179 15.2245 18.0225 15.1099 17.944C14.9954 17.8655 14.8388 17.8947 14.7603 18.0093L15.1753 18.2936ZM11.4604 18.2936C11.5299 18.395 11.6561 18.531 11.8253 18.6432C11.9961 18.7565 12.2243 18.8545 12.4928 18.8545V18.3515C12.3489 18.3515 12.2162 18.2989 12.1034 18.2241C11.989 18.1482 11.909 18.0584 11.8753 18.0093L11.4604 18.2936ZM12.4928 18.8545C12.8234 18.8545 13.0692 18.6187 13.2222 18.4157C13.3837 18.2014 13.4979 17.9503 13.5557 17.7815L13.0799 17.6184C13.0346 17.7506 12.9425 17.951 12.8205 18.113C12.6899 18.2862 12.5748 18.3515 12.4928 18.3515V18.8545ZM13.0799 17.7815C13.1377 17.9503 13.2519 18.2014 13.4134 18.4157C13.5664 18.6187 13.8123 18.8545 14.1428 18.8545V18.3515C14.0608 18.3515 13.9457 18.2862 13.8151 18.113C13.6931 17.951 13.601 17.7506 13.5557 17.6184L13.0799 17.7815ZM14.1428 18.8545C14.4114 18.8545 14.6395 18.7565 14.8103 18.6432C14.9796 18.531 15.1058 18.395 15.1753 18.2936L14.7603 18.0093C14.7267 18.0584 14.6466 18.1482 14.5323 18.2241C14.4195 18.2989 14.2867 18.3515 14.1428 18.3515V18.8545Z" fill="#222327"/>
<path d="M14.691 17.4678C14.691 17.677 13.7489 17.9433 13.4319 18.027C13.3641 18.0449 13.2942 18.0449 13.2265 18.027C12.9094 17.9433 11.9674 17.677 11.9674 17.4678C11.9674 17.2162 12.7203 16.9473 13.3292 16.9473C13.938 16.9473 14.691 17.2162 14.691 17.4678Z" fill="#222327"/>
<path d="M13.1664 10.7765C9.38216 10.7765 7.99148 9.44709 7.76648 8.66948L9.56644 6.71292L13.4664 6.03564L18.8663 8.66948C18.5413 9.29658 16.9548 10.7765 13.1664 10.7765Z" fill="#222327"/>
<path fill-rule="evenodd" clip-rule="evenodd" d="M13.69 24.9994C21.5101 24.9994 27.2429 22.7954 27.2429 16.8662C27.2429 9.44869 21.5101 3.85303 13.69 3.85303C5.87002 3.85303 0.266846 9.96921 0.266846 16.8662C0.266846 22.7954 5.87002 24.9994 13.69 24.9994ZM13.3826 22.7223C19.1348 22.7223 23.3518 21.1083 23.3518 16.7663C23.3518 11.3344 19.1348 7.23667 13.3826 7.23667C7.63035 7.23667 3.50878 11.7156 3.50878 16.7663C3.50878 21.1083 7.63035 22.7223 13.3826 22.7223Z" fill="white"/>
</svg>
